<svg width="307" height="282" viewBox="0 0 307 282" fill="none" xmlns="http://www.w3.org/2000/svg">
<path opacity="0.1" d="M179.465 33.305C160.104 32.6324 141.665 26.387 124.057 19.5527C106.449 12.7185 89.0093 5.14573 70.1123 1.5253C57.958 -0.803622 44.0567 -1.13248 34.2657 5.37893C24.8397 11.6571 21.7944 22.4646 20.1581 32.5038C18.9256 40.0556 18.2016 48.005 21.576 55.0725C23.9213 59.9815 28.0794 64.1071 30.9572 68.8098C40.9696 85.1691 33.8918 105.343 23.0448 121.317C17.9593 128.812 12.0512 135.966 8.12345 143.936C4.19567 151.906 2.37986 161.052 5.81704 169.19C9.22131 177.262 17.3371 183.313 26.129 187.573C43.985 196.228 65.0178 198.703 85.5422 200.105C130.961 203.211 176.62 201.866 222.159 200.521C239.013 200.022 255.938 199.516 272.517 196.912C281.724 195.465 291.228 193.172 297.914 187.63C306.398 180.595 308.501 168.684 302.814 159.862C293.277 145.066 266.917 141.392 260.243 125.514C256.575 116.772 260.342 107.038 265.675 98.9303C277.115 81.5426 296.287 66.2866 297.295 46.4115C297.989 32.7609 288.772 19.0894 274.521 12.6288C259.585 5.86026 238.869 6.70931 227.854 17.9174C216.502 29.4574 196.561 33.897 179.465 33.305Z" fill="#F37A20" fill-opacity="0.54"/>
<path d="M67.4332 281.484L170 143.5L290.733 281.484H67.4332Z" fill="#88533E"/>
<path d="M226.5 207.612L222.075 221.266L204.758 205.021L191.359 221.724L174.457 199.102L160.645 219.7L146.555 207.612L126.753 231.455C126.753 231.455 123.829 219.328 121.123 208.591L170 143L226.5 207.612Z" fill="#FEF2B6"/>
<path d="M77.2406 281.484H66.3246C64.4281 278.342 61.1006 272.005 63.2507 269.299C64.2286 268.071 65.3052 269.24 66.3044 271.335C65.9611 267.23 66.3044 263.306 68.5742 262.161C70.641 261.12 71.5647 264.264 71.9215 268.483C72.9381 266.084 74.2774 264.395 76.0234 264.529C78.5211 264.716 77.9198 268.91 76.458 273.552C77.567 272.492 78.7258 271.969 79.8558 272.435C82.2169 273.41 80.0099 277.586 77.2406 281.484Z" fill="#E0A967"/>
<path d="M301.535 281.484H286.252C283.596 277.361 278.939 269.044 281.949 265.492C283.318 263.88 284.821 265.413 286.224 268.163C285.743 262.775 286.224 257.626 289.402 256.122C292.295 254.757 293.588 258.883 294.088 264.421C295.511 261.272 297.386 259.054 299.83 259.23C303.328 259.477 302.483 264.98 300.437 271.073C301.99 269.682 303.612 268.995 305.193 269.607C308.504 270.885 305.411 276.369 301.535 281.484Z" fill="#E0A967"/>
<path d="M77.8419 56.9296C77.1766 56.3748 77.713 55.3872 77.3566 55.09L75.6936 53.7031L72.0617 57.8487L69.9252 58.7318L69.1591 60.1427C68.6388 60.5288 68.7308 61.6305 67.1046 60.6843C66.2487 60.1862 65.1531 55.8594 66.5707 54.2943C68.8977 51.7252 67.1569 51.1404 68.1482 50.6902C69.1543 50.2333 69.1537 52.1437 71.3085 51.481C72.0581 51.2504 72.9401 51.5131 74.2129 51.8533C76.0214 52.3365 77.4736 52.5227 78.7619 53.3921C80.0501 54.2615 80.8816 54.9549 81.0372 55.4947C81.1929 56.0344 80.0251 57.9304 79.7056 58.0739C79.3861 58.2174 78.6734 57.6231 77.8419 56.9296Z" fill="black"/>
<path d="M33.5001 242.5C33.5001 231.5 60.0001 246.902 60.0001 246.902C58.092 257.014 54.6255 275.878 54.1166 278.573L58.0919 280.864H45.848H43.9164C43.9164 280.864 34.7256 281.17 34.7256 280.864C34.5053 280.677 33.5001 253.5 33.5001 242.5Z" fill="#9F2733"/>
<path d="M118.084 238.884C113.975 228.361 140.877 220.884 142.47 231.577C144.062 242.27 146.113 260.835 146.49 263.613L150.976 264.6L139.406 268.419L137.58 269.021C137.58 269.021 128.992 272.186 128.895 271.888C128.627 271.775 122.192 249.407 118.084 238.884Z" fill="#9F2733"/>
<path d="M74.0665 66.1081C75.273 67.0862 78.0523 64.8144 80.7952 64.3556C80.7102 64.4611 80.7039 70.3474 80.2921 72.0391C79.9079 73.6174 78.9799 76.6843 78.3523 77.164C77.3275 77.9475 74.8142 79.5113 70.8705 80.275C65.9169 81.2342 57.0506 76.5681 57.0238 72.6156C57.0073 70.1849 54.1219 68.4387 57.0238 65.7324C57.0238 65.7324 68.1046 64.3556 66.9616 60.5235C67.3734 60.6204 67.5749 60.5933 68.1046 60.229C68.39 60.0327 68.6676 59.8413 69.0035 59.5621C69.4799 59.166 69.9926 58.6196 69.9926 58.6196C69.9786 57.736 68.986 57.1059 69.5806 56.3668C70.2654 55.5156 71.9821 57.2311 72.8013 56.4997L73.903 55.3353L75.2152 53.704L75.6867 53.118L77.7406 54.7829C77.6838 56.6556 77.6846 59.1943 77.6846 59.1943C77.5736 60.3835 77.4967 62.3562 76.7323 63.3065C76.1207 64.0667 75.62 64.4021 74.0844 63.1574L73.0652 64.4244C72.7669 64.9588 73.5939 65.7251 74.0665 66.1081Z" fill="#9F2731"/>
<path d="M76.3829 60.8737C76.3666 60.657 76.2197 58.7066 76.0236 57.5349L75.8764 57.0133" stroke="#380A0E"/>
<path d="M92.8165 63.4881C94.9684 63.4881 100.801 63.4881 108.681 72.6157C116.561 81.7433 121.126 91.1774 121.126 91.1774L99.3737 97.3866L96.8421 100.897V103.77C96.8421 103.77 54.3668 105.775 49.9145 106.077C49.8227 106.102 49.7266 106.115 49.6259 106.115C49.4418 106.115 49.5524 106.102 49.9145 106.077C52.052 105.498 51.8035 98.4639 51.8035 98.4639L28.212 97.3866L28.9379 91.5416C30.0268 84.6193 30.3945 79.2716 31.9768 76.2397C34.192 69.6971 37.6479 64.9243 43.8187 63.488C48.0405 62.5054 55.3943 63.7138 58.0842 65.5223C57.8732 66.7989 57.5825 69.4916 58.4007 71.5861C60.4577 76.852 63.9386 79.0861 69.6347 79.2456C75.3309 79.4052 77.7071 76.3294 79.2865 74.1393C80.5524 72.384 80.7105 65.8415 80.7105 64.5649C82.9257 62.4904 90.1266 63.4881 92.8165 63.4881H92.8165Z" fill="#DB6036"/>
<path d="M96.7024 85.4647C96.6415 87.0236 95.4238 90.745 95.4238 90.745C95.4238 90.745 102.5 93.9998 96.0001 100.5" stroke="black" stroke-width="2"/>
<path d="M71.3022 103.82H97.0001C97.0001 103.82 99.0001 113.5 97.5001 123.5C97.0001 125.5 96.0837 127.61 96.0837 127.61C96.0837 127.61 104.431 135.99 117.86 156.028C131.29 176.066 132.015 177.159 136.734 186.996C141.452 196.833 142.904 210.678 142.904 216.143C142.904 221.608 143.63 237.274 143.63 237.274L119.5 243C119.5 243 114.231 227.802 112.779 220.151C111.327 212.5 109.15 202.663 109.15 202.663L75.3956 186.996L60.5148 248.204C60.5148 248.204 45.1143 248 33.5001 248C33.5001 248 32.863 237.787 32.5001 230.5C32.5001 230.5 29.6347 149.509 29.1385 146.496C28.6423 143.483 27.7671 133.188 27.7671 133.188C27.7671 133.188 26.8306 121.34 30.549 115.364C33.5738 110.503 38.4844 106.099 41.845 106.046L71.3022 103.82Z" fill="#FBA53E"/>
<path d="M67.4034 52.8778C66.4345 53.2512 64.7554 52.7509 64.4248 52.3301C63.3638 50.9799 64.2097 49.3354 64.6624 48.597C65.2284 47.6741 65.4928 47.4548 66.4527 47.2023C67.4126 46.9499 68.3956 47.041 69.3413 47.6162C70.287 48.1915 69.8275 49.6608 69.6093 50.5671C69.3911 51.4735 69.2511 52.1657 67.4034 52.8778Z" fill="black"/>
<path d="M48.9204 114.805L46.2944 120.817L40.7038 132.5L42.0001 164C41.6286 167.133 41.5001 171 42.0001 173.5C42.1307 174.153 41.0952 175.5 40.7038 175.8C40.521 175.826 40.4754 175.702 40.5108 175.506C40.2221 175.756 39.8806 175.965 39.6874 175.8C39.6393 175.759 39.5364 175.421 39.3399 175.265C39.2502 175.194 39.1994 175.078 39.1447 174.964L38.9923 174.73C38.739 174.491 38.4278 174.344 38.6231 173.924C39.0815 172.941 38.5949 171.854 38.2265 171.038C37.2964 168.978 35.068 165.012 35.068 165.012C35.068 165.012 32.9581 160.891 31.8138 158.151C28.4409 150.077 27.5695 140.591 26.0876 136.37C24.6058 132.148 25.2536 122.836 25.6683 115.61C26.0876 108.301 27.4861 99.5571 28.212 96.4558L54.1293 96.4561L51.8295 106.224L48.9204 114.805Z" fill="#9F2733"/>
<path d="M89.5001 141L84.7884 146.152C81.2613 163.927 77.263 183.189 73.1447 196.484C69.0265 209.778 63.6877 232.491 59.5001 248" stroke="black" stroke-width="2"/>
<path d="M52.2214 105.366L56.3806 87.5342" stroke="black" stroke-width="2"/>
<path d="M121.128 91.1767L124.397 96.1187L125.908 98.8222L127.169 101.15L162.14 114.131C164.927 115.373 167.864 114.561 169.399 115.588C169.663 115.765 171.406 116.496 171.406 117.197C171.406 117.42 171.21 117.889 170.851 118.138C170.801 118.173 170.679 118.723 170.488 118.867L170.351 119.005C170.286 119.085 170.231 119.165 170.125 119.231C169.844 119.406 170.125 119.596 169.648 119.413C169.171 119.23 167.74 118.854 166.901 118.976C164.783 119.284 158.511 120.295 158.511 120.295L146.897 121.782L132.11 120.791C127.873 121.016 117.575 120.09 112.054 115.588C106.247 110.852 100.077 102.107 99.3508 97.3709L121.128 91.1767Z" fill="#9F2733"/>
<path d="M167.947 115.587C167.221 115.952 166.495 117.773 167.584 118.503C168.672 119.231 169.398 119.231 170.123 119.231H170.125C170.851 119.231 170.125 118.139 170.851 117.045C171.577 115.952 170.488 115.641 170.125 115.588C169.762 115.535 168.673 115.223 167.947 115.587Z" fill="#7B242D" stroke="#7B242D"/>
<path d="M169.996 78.5347H168.711V143.593H169.996V78.5347Z" fill="#FF5E00"/>
<path d="M169.995 78.4015C169.995 78.4015 184.001 71.701 193.715 83.3727C203.429 95.0444 215.481 88.8446 215.481 88.8446C215.481 88.8446 206.667 102.341 190.117 100.313C173.568 98.2864 169.995 106.564 169.995 106.564" fill="#FF5E00"/>
<path d="M170.744 119.486C170.663 119.535 170.576 119.572 170.485 119.594C170.008 119.626 168.816 119.596 168.673 119.231C168.442 118.634 168.959 116.24 169.324 115.557C169.667 114.917 170.885 115.384 171.046 115.44C171.051 115.442 171.056 115.445 171.062 115.446C171.391 115.595 171.596 115.78 171.576 116.018C171.576 116.018 171.342 119.091 170.744 119.486Z" fill="#9F2733"/>
<path d="M171.577 116.681L170.518 116.317L169.142 116.317M171.374 117.774L170.125 117.41L168.804 117.492M170.851 118.867L169.762 118.503L168.673 118.503" stroke="#380A0E" stroke-width="0.25"/>
<path d="M170 116C169.5 115.5 168.5 115.5 168 115L167.5 116L169.5 117C170.3 117.4 170.812 116.812 170 116Z" fill="#7B242D"/>
</svg>
