<svg width="100" height="135" viewBox="0 0 100 135" fill="none" xmlns="http://www.w3.org/2000/svg">
<rect width="100" height="100" rx="50" fill="#FECA97"/>
<path d="M55.8963 27.3154H53.9943V38.9422H55.8963V27.3154Z" fill="#F2F2F2"/>
<path d="M54.9503 25.004C55.5419 25.004 55.9488 24.5447 56.1435 24.2702C56.7076 23.4639 56.7849 22.1909 56.3282 21.2449C56.2807 21.175 56.3257 21.2399 56.2907 21.16L54.9528 18L53.585 21.2474C53.575 21.2749 53.5625 21.3023 53.5475 21.3298C53.1881 22.0761 53.1681 23.0471 53.4976 23.8034C53.8246 24.5447 54.3762 25.004 54.9503 25.004Z" fill="#F9A000"/>
<path d="M45.5975 27.3154H43.6954V38.9422H45.5975V27.3154Z" fill="#F2F2F2"/>
<path d="M44.6514 25.004C45.2429 25.004 45.6523 24.5447 45.847 24.2701C46.4086 23.4639 46.4885 22.1884 46.0292 21.2399C45.9868 21.17 46.0267 21.2374 45.9918 21.16L44.6539 18.0024L43.2835 21.2499C42.8841 22.0761 42.8667 23.047 43.1961 23.8058C43.5206 24.5472 44.0773 25.004 44.6514 25.004Z" fill="#F9A000"/>
<path d="M75.7053 58.5489C75.7053 55.5212 74.9215 52.6731 73.5511 50.192H49.1669V56.7842C49.1669 56.7917 49.1669 56.8016 49.1644 56.8091C49.1369 59.4625 46.9703 61.6116 44.3095 61.6116C41.6312 61.6116 39.4521 59.435 39.4521 56.7567V53.0425C38.7382 53.4819 37.8995 53.7365 37.0009 53.7365C34.7994 53.7365 32.9473 52.2113 32.4431 50.1646H26.0581C24.6777 52.6532 23.8865 55.5087 23.8865 58.5489V72.3897H75.7053V58.5489Z" fill="white"/>
<path d="M20.5441 75.3751C21.2905 76.3935 22.4911 77 23.7516 77H75.8375C77.098 77 78.2986 76.3935 79.045 75.3751L79.5891 74.6312H20L20.5441 75.3751Z" fill="#6D3805"/>
<path d="M34.5496 49.0439C34.5496 50.3943 35.6504 51.4951 37.0008 51.4951C38.3512 51.4951 39.452 50.3943 39.452 49.0439C39.452 48.4249 39.9562 47.9232 40.5727 47.9232C41.1917 47.9232 41.6934 48.4249 41.6934 49.0439V56.7568C41.6934 58.1995 42.8666 59.3702 44.3093 59.3702C45.7521 59.3702 46.9252 58.1995 46.9252 56.7568V49.0714C46.9252 48.4523 47.4294 47.9506 48.046 47.9506H72.0608C68.8783 43.8421 63.9061 41.1837 58.3124 41.1837H41.2816C35.7003 41.1837 30.7381 43.8321 27.5531 47.9232H33.4289C34.0454 47.9232 34.5496 48.4249 34.5496 49.0439Z" fill="#6D3805"/>
<path d="M36.28 131.12C35.4 131.12 34.615 130.915 33.925 130.505C33.235 130.085 32.695 129.47 32.305 128.66C31.925 127.85 31.735 126.88 31.735 125.75C31.735 124.62 31.925 123.65 32.305 122.84C32.695 122.03 33.235 121.42 33.925 121.01C34.615 120.59 35.4 120.38 36.28 120.38C37.32 120.38 38.21 120.63 38.95 121.13C39.69 121.62 40.15 122.375 40.33 123.395L39.145 123.605C38.995 122.895 38.655 122.36 38.125 122C37.605 121.64 36.99 121.46 36.28 121.46C35.27 121.46 34.46 121.83 33.85 122.57C33.25 123.31 32.95 124.37 32.95 125.75C32.95 127.13 33.25 128.19 33.85 128.93C34.46 129.67 35.27 130.04 36.28 130.04C37.86 130.04 38.865 129.18 39.295 127.46L40.45 127.79C40.15 128.89 39.64 129.72 38.92 130.28C38.2 130.84 37.32 131.12 36.28 131.12ZM45.3939 123.14C46.3939 123.14 47.1489 123.39 47.6589 123.89C48.1689 124.38 48.4239 125.075 48.4239 125.975V131H47.3439V129.71C47.0839 130.15 46.7489 130.495 46.3389 130.745C45.9389 130.995 45.3939 131.12 44.7039 131.12C43.9839 131.12 43.3889 130.905 42.9189 130.475C42.4589 130.045 42.2289 129.495 42.2289 128.825C42.2289 128.135 42.4639 127.595 42.9339 127.205C43.4039 126.805 44.0639 126.58 44.9139 126.53L47.2839 126.41V125.975C47.2839 125.415 47.1189 124.965 46.7889 124.625C46.4689 124.285 46.0039 124.115 45.3939 124.115C44.3039 124.115 43.6739 124.535 43.5039 125.375L42.4689 125.3C42.5489 124.66 42.8489 124.14 43.3689 123.74C43.8889 123.34 44.5639 123.14 45.3939 123.14ZM44.9139 130.085C45.2439 130.085 45.5889 130.015 45.9489 129.875C46.3189 129.735 46.6339 129.515 46.8939 129.215C47.1539 128.905 47.2839 128.515 47.2839 128.045V127.37L45.0789 127.49C44.4689 127.53 44.0339 127.665 43.7739 127.895C43.5139 128.125 43.3839 128.44 43.3839 128.84C43.3839 129.23 43.5239 129.535 43.8039 129.755C44.0839 129.975 44.4539 130.085 44.9139 130.085ZM53.1278 127.025L52.0478 128.135V131H50.8928V120.11H52.0478V126.65L55.3478 123.26H56.7578L53.8928 126.215L57.2228 131H55.8578L53.1278 127.025ZM65.0329 127.235H59.2729C59.2929 128.145 59.5329 128.845 59.9929 129.335C60.4629 129.825 61.0379 130.07 61.7179 130.07C62.2379 130.07 62.6829 129.945 63.0529 129.695C63.4329 129.445 63.6979 129.1 63.8479 128.66L64.8829 128.855C64.7029 129.555 64.3329 130.11 63.7729 130.52C63.2229 130.92 62.5379 131.12 61.7179 131.12C61.0179 131.12 60.3979 130.965 59.8579 130.655C59.3179 130.335 58.8929 129.875 58.5829 129.275C58.2829 128.665 58.1329 127.95 58.1329 127.13C58.1329 126.31 58.2879 125.6 58.5979 125C58.9179 124.4 59.3479 123.94 59.8879 123.62C60.4379 123.3 61.0479 123.14 61.7179 123.14C62.7479 123.14 63.5579 123.46 64.1479 124.1C64.7379 124.73 65.0329 125.585 65.0329 126.665V127.235ZM63.8629 126.275C63.8129 125.605 63.5879 125.09 63.1879 124.73C62.7879 124.36 62.2979 124.175 61.7179 124.175C61.1279 124.175 60.6179 124.355 60.1879 124.715C59.7579 125.075 59.4779 125.595 59.3479 126.275H63.8629Z" fill="#6D3805"/>
</svg>
