<svg width="333" height="374" viewBox="0 0 333 374" fill="none" xmlns="http://www.w3.org/2000/svg">
<path d="M164.928 19.2623C166.373 18.9579 167.806 18.637 169.228 18.2995C204.27 10.2236 244.343 5.54236 274.729 19.7852C304.518 33.7375 300.858 63.3104 283.436 90.468C253.614 136.948 140.676 181.054 110.198 133.794C100.346 118.522 117.328 91.63 105.11 73.6273C91.1995 53.1263 26.8247 66.0909 39.6897 20.7978C46.8194 -4.31804 65.1126 -2.84065 84.767 5.30996C96.0467 9.98286 106.82 15.8012 118.49 19.752C132.658 24.5577 149.192 22.6321 164.928 19.2623Z" fill="#F37A20"/>
<path opacity="0.9" d="M164.928 19.2623C166.373 18.9579 167.806 18.637 169.228 18.2995C204.27 10.2236 244.343 5.54236 274.729 19.7852C304.518 33.7375 300.858 63.3104 283.436 90.468C253.614 136.948 140.676 181.054 110.198 133.794C100.346 118.522 117.328 91.63 105.11 73.6273C91.1995 53.1263 26.8247 66.0909 39.6897 20.7978C46.8194 -4.31804 65.1126 -2.84065 84.767 5.30996C96.0467 9.98286 106.82 15.8012 118.49 19.752C132.658 24.5577 149.192 22.6321 164.928 19.2623Z" fill="white"/>
<path d="M279.352 140.124L262.675 109.161C274.239 104.673 299.406 96.3319 303.433 94.928C307.461 93.524 310.012 92.8339 309.94 92.5534L310.596 86.2206L318.285 100.497L317.312 102.043C317.312 102.043 304.061 126.815 303.64 127.042C303.521 127.437 279.352 140.124 279.352 140.124Z" fill="#9F2733"/>
<path d="M322.494 6.93732C322.708 7.14421 324.636 9.00625 325.917 10.037L326.556 10.4472" stroke="#380A0E"/>
<path d="M111.725 207.499L101.624 169.662C101.63 169.659 101.636 169.656 101.642 169.653C101.636 169.656 101.63 169.659 101.624 169.661C88.3289 176.061 102.57 169.144 101.642 169.653C115.036 163.209 160.643 146.339 181.495 138.296L262.86 109.062L279.537 140.024L235.658 162.776C236.464 164.438 237.686 167.026 239.491 170.922C251.825 197.541 252.724 229 250.224 242C247.724 255 210.224 245 210.224 245L201.224 205.501L166.998 237.302C165.515 238.101 164.264 239.984 160.281 242.594C150.027 249.313 147.71 252.383 138.189 253.537C113.724 256.501 104.224 242.594 101.624 229L111.725 207.499Z" fill="#FBA53E"/>
<path d="M226.382 286.094L209.554 272.078C211.575 269.651 211.368 269.514 211.494 267.117C211.672 263.702 210.725 251.038 210.166 244.36L250.224 241.001C248.147 259.306 231.265 295.368 230.456 294.694C228.798 293.314 227.201 287.963 226.382 286.094Z" fill="#9F2731"/>
<path d="M150 116C150 116 155.416 117.829 159.357 118.097C161.252 118.225 164.229 118.097 164.229 118.097L188.111 79.2235C190.325 76.2233 189.824 70.6568 190.3 68.5197C190.443 67.8772 190.889 66.2202 191.427 66.1618C192.176 66.53 191.425 68.1877 191.423 69.2661C191.422 70.3445 191.965 70.9786 192.171 71.1864C192.376 71.3943 192.545 71.5646 193.295 70.7687C193.533 70.5165 193.359 70.0901 195.546 69.1571C195.777 69.0587 197.279 68.9638 197.42 69.4956C197.439 69.5691 197.331 69.9846 197.419 70.2717C197.458 70.4027 197.436 70.5552 197.418 70.7075L197.418 71.0477C197.507 71.4571 197.704 71.8097 197.275 72.1174C196.267 72.8394 196.063 74.2758 195.913 75.3558C195.535 78.0819 195.209 83.6118 195.209 83.6118L194.093 92.7932L186.327 118.983C185.163 124.298 180.063 134.796 174.304 140.71C169.266 145.883 160.393 152 155.5 152L150 116Z" fill="#9F2733"/>
<path d="M136.701 177.318L141.009 179.543C162.658 165.411 211.836 142.112 235.355 161.974" stroke="black" stroke-width="2"/>
<path d="M94.2482 108.891C93.1564 109.107 92.5584 107.728 91.9735 107.844L89.244 108.384L90.6745 115.588L89.9134 118.52L90.7677 120.49C90.7585 121.348 91.9656 122.178 89.7189 123.051C88.5364 123.51 83.2219 121.001 82.7182 118.233C81.8914 113.69 79.9274 114.984 80.2389 113.59C80.555 112.175 82.5228 113.779 83.5252 111.014C83.8739 110.052 84.8343 109.368 86.1802 108.349C88.0925 106.901 89.4201 105.568 91.3233 104.977C93.2265 104.387 94.5912 104.117 95.269 104.41C95.9467 104.704 96.9868 107.493 96.8847 107.941C96.7826 108.389 95.6129 108.621 94.2482 108.891Z" fill="black"/>
<path d="M102.41 123.32C104.555 122.895 107.265 119.577 109.865 117.565L110.933 122.274C111.527 124.895 111.293 128.05 111.296 129.262C111.181 130.854 109.709 135.737 104.584 138.292C98.1786 141.486 91.1037 139.035 87.2877 136.582C84.2349 134.619 82.4408 130.482 81.8739 124.39C81.8739 124.39 85.054 125.59 86.7995 126.1C88.1086 126.483 88.5345 126.281 89.9791 125.995C90.5624 125.879 90.5855 125.353 90.6285 124.377L90.6289 124.368C90.6521 123.839 90.6744 123.324 90.6472 122.653C90.6088 121.701 90.4313 120.557 90.4313 120.557C89.4192 119.688 87.8525 120.212 87.5274 118.778C87.153 117.128 90.5711 116.849 90.448 115.161L90.0776 112.711L89.3601 109.548L89.1023 108.412L92.7532 107.689C94.8237 109.633 97.6975 112.176 97.6975 112.176C98.9479 113.498 101.114 115.565 101.532 117.407C101.867 118.881 101.816 119.801 99.0863 120.341L99.6436 122.798C99.9918 123.681 101.57 123.486 102.41 123.32Z" fill="#9F2731"/>
<path d="M126.154 111.2C135.498 109.976 145 115 150 116L157.529 151.625L143.5 155L140.5 162.5C140.5 162.5 139.5 166 140.5 174.5C142.023 187.442 136.224 186.5 124.454 199.476C112.685 212.452 101.909 229.422 101.909 229.422L67.9026 173.218L56.1009 158.012C51.2075 151.707 48.7741 142.776 49.8414 138.5C50.6667 129.566 57.6849 123.684 64.1279 121.553C69.2822 119.848 78.2522 122.75 82.0929 124.414C82.2045 126.104 82.63 129.629 84.2477 132.117C88.3148 138.372 93.254 140.389 100.319 139.204C107.384 138.019 109.417 133.493 110.726 130.298C111.775 127.738 110.065 119.305 109.694 117.667C111.819 114.465 119.26 112.102 126.154 111.2Z" fill="#DB6036"/>
<path d="M136.048 140.493C136.463 142.622 136.309 147.929 136.309 147.929C136.309 147.929 145.724 148.5 140.224 160" stroke="black" stroke-width="2"/>
<path d="M99.814 154.084L91.4011 140.346" stroke="black" stroke-width="2"/>
<path d="M74.6586 109.525C75.3638 108.369 77.4685 107.664 78.1307 107.89C80.256 108.613 80.6544 111.112 80.7586 112.29C80.8887 113.761 80.7866 114.21 79.9976 115.221C79.2085 116.233 78.1316 116.874 76.7205 116.94C75.3094 117.005 74.6499 114.996 74.1763 113.807C73.7027 112.617 73.3136 111.728 74.6586 109.525Z" fill="black"/>
<path d="M100.287 153.476L107.679 167.202L109.629 171.308L111.245 174.839L163.879 196.723C168.038 198.894 175.163 198.388 177.837 198.5C178.641 198.534 179.789 199.812 180 200.5C179.758 201.564 178.286 199.848 177 200.103C175.713 200.358 174.724 199.785 174.53 200.103C174.336 200.42 174.178 200.681 175.324 201.47C175.687 201.72 175.813 201.372 177.5 204C177.678 204.277 177.5 204.5 177 205.5C176.959 205.583 176.82 205.818 176.5 206C176.242 206.147 176.5 206 176 206C175.5 206 176.5 206.028 175 206C173.5 205.972 171.868 205.91 170.541 205.972C167.19 206.127 160.51 207.017 160.51 207.017L149.267 207.745L115.992 203.849C109.347 203.596 94.2315 201.14 86.9223 193.346C79.613 185.551 70.4133 175.649 66.7271 171.672L100.287 153.476Z" fill="#9F2733"/>
<path d="M98.4736 120.335L99.0307 122.791" stroke="#380A0E"/>
<path d="M177.306 205.282L176.309 203.679L174.618 202.625M176.5 205.5L176.047 204.656L173.894 203.694M175.885 206.076L175.221 205.282L173.632 204.671" stroke="#380A0E" stroke-width="0.25"/>
<path d="M167.929 367.791C256.807 367.791 328.857 363.585 328.857 358.396C328.857 353.207 256.807 349 167.929 349C79.0502 349 7 353.207 7 358.396C7 363.585 79.0502 367.791 167.929 367.791Z" fill="#F5F5F5"/>
<path d="M184.875 253.028V251.765H186.139V254.292H163.185C163.185 254.292 162.342 258.082 158.762 258.714H128.648C128.648 258.714 102.535 296.199 88.0047 316.626C87.373 317.257 87.373 318.31 87.373 319.153C87.373 319.995 88.2153 321.469 88.2153 321.469L91.5847 327.997C101.061 327.857 122.415 327.997 131.175 327.997C138.335 327.997 145.495 335.368 147.39 340.422H145.285C143.263 334.02 134.966 329.893 131.175 329.471H92.2165L98.7447 340.422H96.4282C96.4282 340.422 92.8483 334.736 90.953 333.051C89.908 332.123 88.5322 331.324 87.373 330.735C86.2831 330.181 84.1732 329.471 82.9506 329.471H43.5708L42.5178 327.997H84.4248C87.5836 327.997 91.5847 331.367 91.5847 331.367C91.5847 331.367 88.6365 325.47 86.7412 321.469C86.3867 320.721 86.03 319.532 86.03 318.901C86.03 318.269 85.8989 317.678 86.5306 316.626C103.287 291.49 127.174 258.714 127.174 258.714C127.174 258.714 125.433 257.682 124.858 256.819C124.282 255.955 124.226 254.292 124.226 254.292H113.275V253.028H161.921H184.875Z" fill="black"/>
<path d="M185.507 250.501H113.697V251.764H186.56L201.301 210.91L201.933 205.435H64.2085V206.909H156.867L158.341 209.647H175.82L177.505 206.909H192.246L193.088 209.647H199.406L200.037 210.91L185.507 250.501Z" fill="black"/>
<path d="M31.9886 157H86.9519L100.851 167.74V170.267L137.072 250.08H134.124L98.7448 171.952L95.1648 170.267L85.4778 161.633H80.8449V159.948L40.6227 160.58V162.054C40.6227 162.054 45.6768 165.845 47.9932 167.529C48.2038 168.582 48.2038 170.267 48.2038 170.267L85.0566 250.501H114.118C114.258 251.554 114.455 253.828 114.118 254.502C113.17 256.397 111.38 257.661 109.695 258.293H80.6343L39.9909 315.994C39.9909 315.994 39.3591 316.836 39.3591 318.731C39.3591 320.416 39.9909 321.469 39.9909 321.469L49.2567 340.001L183.19 340.211V341.264L167.607 341.238C167.607 341.238 171.187 347.161 173.082 350.109C175.399 350.109 177.505 351.372 177.505 353.689C177.505 356.848 175.82 357.69 173.714 357.69C171.187 357.69 169.292 356.426 169.292 354.11C169.292 350.319 172.029 350.109 172.029 350.109L166.765 341.237L135.808 341.186C135.808 341.186 138.756 346.95 140.652 350.109C142.336 349.898 144.653 351.027 144.653 353.478C144.653 355.584 144.442 357.901 141.073 357.901C138.125 357.901 137.258 355.753 137.282 353.478C137.308 351.078 139.388 350.319 139.388 350.319L134.545 341.184L88.0049 341.107C88.0049 341.107 91.1637 347.161 92.6378 350.109C94.1119 350.109 97.0601 350.529 97.0601 353.899C97.0601 356.216 96.2178 357.901 92.8484 357.901C90.9531 357.901 88.8472 356.848 88.8472 353.899C88.8472 350.951 91.3743 350.109 91.3743 350.109L86.7413 341.105L55.5744 341.054C56.9081 344.139 59.9967 348.845 60.8391 350.319C63.1555 350.319 64.4191 351.372 64.4191 353.899C64.4191 356.426 63.1555 357.69 60.8391 357.69C59.5755 357.69 57.2591 357.058 57.2591 353.899C57.2591 351.372 58.5226 350.881 59.365 350.319L54.1003 341.054H48.2038L38.0956 320.837C38.0956 320.837 37.6744 319.784 37.6744 318.521C37.6744 317.257 38.0956 316.415 38.0956 316.415L78.1072 259.346V258.293H76.6331C76.6331 258.293 75.159 257.661 75.159 255.344C75.159 252.396 76.6331 251.554 76.6331 251.554H81.2661V250.08L62.3132 208.173L46.7297 171.952C46.7297 171.952 42.9391 170.372 42.0968 169.635C41.2544 168.898 34.7262 162.054 34.7262 162.054H27.7768C27.7768 162.054 26.7239 160.58 26.7239 159.106C26.7239 157.842 29.4615 157.421 29.4615 157.421L31.9886 157Z" fill="#0C0A05"/>
<path d="M153.497 250.711L168.238 209.647H169.502L154.971 250.711H153.497Z" fill="black"/>
<path d="M196.668 223.125H71.5791V224.388H195.613L196.668 223.125Z" fill="#0C0A05"/>
<path d="M190.297 75.3416C195.279 69.6421 200.27 63.6602 202.651 56.4742C205.136 48.9694 203.943 39.5176 197.483 34.9591C192.058 31.1299 184.283 31.9008 178.749 35.5709C173.214 39.2409 169.655 45.2905 167.457 51.557C166.6 45.1391 158.249 41.6578 152.372 44.3747C146.494 47.0916 143.54 54.1518 144.039 60.6073C144.538 67.0629 147.859 72.9653 151.704 78.1749C158.164 86.9054 166.243 94.3109 175.502 99.9873C175.84 97.8622 176.426 95.784 177.248 93.7951C180.137 86.7979 185.315 81.041 190.297 75.3416Z" fill="#FF5E00"/>
<path d="M173.975 100.775C163.207 93.6758 154.221 84.1902 147.713 73.055C144.352 67.2658 141.5 60.4348 142.557 53.6008C143.374 48.3151 146.615 42.8906 151.902 41.1087C157.48 39.2281 165.145 42.8739 165.472 49.2083C165.497 49.6813 166.211 50.0037 166.452 49.4856C169.578 42.7613 174.521 36.0376 181.849 33.6221C188.376 31.4706 196.204 32.9988 199.87 39.2489C203.689 45.7588 202.12 54.0853 198.527 60.3039C194.541 67.2022 188.393 72.4451 182.721 77.9023C177.14 83.2717 171.594 89.2414 169.255 96.8013C168.122 100.311 167.821 104.036 168.376 107.682C169.003 111.431 170.811 114.665 173.408 117.408C176.166 120.322 179.294 122.82 181.898 125.892C184.464 128.929 186.674 132.25 188.487 135.788C192.123 142.836 194.13 150.61 194.361 158.537C194.735 172.996 188.686 187.359 178.305 197.393C177.05 198.603 175.735 199.75 174.365 200.828C175 201.5 174.5 201 175.106 201.576C180.803 197.034 185.523 191.387 188.983 184.974C192.443 178.561 194.571 171.515 195.239 164.26C196.635 148.341 190.346 132.025 178.76 121.05C175.728 118.177 172.388 115.494 170.631 111.595C169.022 108.022 168.821 103.916 169.524 100.1C171.031 91.9264 176.514 85.4573 182.278 79.8004C188.04 74.1449 194.399 68.8958 198.74 61.9887C202.604 55.8401 204.599 47.9699 201.858 40.9647C200.645 37.7534 198.32 35.0839 195.306 33.4415C192.3 31.9143 188.905 31.3229 185.56 31.7436C178.07 32.5797 172.175 37.748 168.268 43.9177C167.253 45.5346 166.344 47.2154 165.546 48.9497L166.525 49.227C166.23 43.5094 160.627 39.6249 155.215 39.5487C149.33 39.4659 144.701 44.0821 142.65 49.2562C140.088 55.7192 141.557 62.7871 144.363 68.912C147.273 75.2657 151.433 81.1498 156.003 86.4145C161.095 92.2716 166.96 97.4077 173.439 101.681C174.005 102.055 174.539 101.148 173.975 100.775Z" fill="#3F3D56"/>
</svg>
