<svg width="100" height="138" viewBox="0 0 100 138" fill="none" xmlns="http://www.w3.org/2000/svg">
<rect y="3" width="100" height="100" rx="50" fill="#FBC1BD"/>
<g clip-path="url(#clip0_0_369)">
<path fill-rule="evenodd" clip-rule="evenodd" d="M17 52.375C31.5316 36.5868 43.836 39.3717 45.1132 39.4997C50.4145 40.0301 65.6476 48.6376 64.6397 54.1429C63.8615 58.3983 53.5819 65.9839 43.4263 66.0632C29.2598 66.1739 17.5147 54.2933 17 52.375ZM54.9012 65.0297L56.841 65.665C56.841 65.665 63.3691 73.6421 63.9623 72.8515C64.5562 72.0601 63.9623 64.0813 63.9623 64.0813C63.9623 64.0813 61.7201 64.8735 61.3905 63.6864C61.2839 63.3006 61.0378 62.5191 60.7544 61.6392C59.0435 62.8735 57.0583 64.0416 54.9012 65.0297ZM42.0524 67.9327C42.8744 70.2921 42.5489 70.3012 43.7196 70.6763C45.3685 71.2042 45.4346 70.3467 46.0278 71.2042C46.6209 72.0601 45.3016 81.9513 43.9831 78.2585C42.6654 74.5665 41.741 70.6763 39.7632 68.6977C39.4485 68.3838 39.1081 68.0434 38.7562 67.6948C39.8384 67.8319 40.938 67.9145 42.0524 67.9327ZM64.7289 58.1265C68.5382 59.1964 72.5895 61.5872 82 67.6452C82 67.6452 77.2861 60.3521 77.4175 54.1107C77.2861 47.8701 82 40.577 82 40.577C73.0993 46.3062 68.9934 48.7549 65.351 49.909C66.5357 51.4696 67.1553 52.9938 66.9066 54.3519C66.7034 55.4614 65.9326 56.7684 64.7289 58.1265ZM40.6191 37.3617C46.0691 28.2743 48.4706 28 48.4706 28L62.7131 42.9687C62.7131 42.9687 61.2451 43.8121 60.2719 45.1455C55.0219 41.252 48.0501 38.0044 44.6539 37.6641C44.2417 37.6236 42.8207 37.3394 40.6191 37.3617ZM26.674 48.5376C27.748 48.5376 28.6187 49.4075 28.6187 50.4823C28.6187 51.5571 27.748 52.427 26.674 52.427C25.5992 52.427 24.7293 51.5571 24.7293 50.4823C24.7293 49.4075 25.5992 48.5376 26.674 48.5376Z" fill="#DE736C"/>
</g>
<path d="M34.535 124.61V128.27H39.455V129.38H34.535V134H33.32V123.5H40.145V124.61H34.535ZM42.1663 126.26H43.3213V134H42.1663V126.26ZM42.7363 124.82C42.4763 124.82 42.2563 124.73 42.0763 124.55C41.8963 124.37 41.8063 124.15 41.8063 123.89C41.8063 123.63 41.8963 123.41 42.0763 123.23C42.2563 123.05 42.4763 122.96 42.7363 122.96C43.0063 122.96 43.2313 123.05 43.4113 123.23C43.5913 123.41 43.6813 123.63 43.6813 123.89C43.6813 124.15 43.5913 124.37 43.4113 124.55C43.2313 124.73 43.0063 124.82 42.7363 124.82ZM48.468 134.12C47.548 134.12 46.823 133.895 46.293 133.445C45.763 132.995 45.478 132.41 45.438 131.69L46.593 131.6C46.633 132.04 46.813 132.4 47.133 132.68C47.453 132.95 47.898 133.085 48.468 133.085C49.008 133.085 49.443 132.975 49.773 132.755C50.103 132.535 50.268 132.21 50.268 131.78C50.268 131.11 49.803 130.71 48.873 130.58L47.883 130.445C46.393 130.245 45.648 129.53 45.648 128.3C45.648 127.88 45.768 127.505 46.008 127.175C46.258 126.845 46.593 126.59 47.013 126.41C47.443 126.23 47.913 126.14 48.423 126.14C49.293 126.14 49.973 126.325 50.463 126.695C50.963 127.055 51.233 127.58 51.273 128.27L50.208 128.36C50.088 127.93 49.888 127.62 49.608 127.43C49.338 127.24 48.943 127.145 48.423 127.145C47.923 127.145 47.518 127.25 47.208 127.46C46.908 127.66 46.758 127.93 46.758 128.27C46.758 128.6 46.873 128.86 47.103 129.05C47.343 129.24 47.703 129.37 48.183 129.44L49.173 129.575C50.673 129.785 51.423 130.49 51.423 131.69C51.423 132.46 51.148 133.06 50.598 133.49C50.058 133.91 49.348 134.12 48.468 134.12ZM53.2844 123.11H54.4394V127.565C54.6294 127.155 54.9444 126.815 55.3844 126.545C55.8344 126.275 56.3594 126.14 56.9594 126.14C57.7894 126.14 58.4744 126.385 59.0144 126.875C59.5544 127.365 59.8244 128.105 59.8244 129.095V134H58.6844V129.23C58.6844 128.57 58.5094 128.065 58.1594 127.715C57.8094 127.355 57.2944 127.175 56.6144 127.175C56.2344 127.175 55.8744 127.27 55.5344 127.46C55.2044 127.65 54.9394 127.92 54.7394 128.27C54.5394 128.62 54.4394 129.025 54.4394 129.485V134H53.2844V123.11Z" fill="#6D3805"/>
<defs>
<clipPath id="clip0_0_369">
<rect width="89" height="126" fill="white" transform="matrix(-1 0 0 1 92 0)"/>
</clipPath>
</defs>
</svg>
