<svg width="100" height="132" viewBox="0 0 100 132" fill="none" xmlns="http://www.w3.org/2000/svg">
<rect y="0.555542" width="100" height="97.491" rx="48.7455" fill="#EDD0FF"/>
<path d="M33.2482 119.088V122.748H38.1682V123.858H33.2482V128.478H32.0332V117.978H38.8582V119.088H33.2482ZM44.6362 121.803C44.3062 121.703 44.0012 121.653 43.7212 121.653C43.3712 121.653 43.0462 121.748 42.7462 121.938C42.4462 122.118 42.2062 122.378 42.0262 122.718C41.8462 123.058 41.7562 123.448 41.7562 123.888V128.478H40.6012V120.738H41.6962V121.983C41.8562 121.573 42.1312 121.243 42.5212 120.993C42.9112 120.743 43.3762 120.618 43.9162 120.618C44.2162 120.618 44.4562 120.653 44.6362 120.723V121.803ZM49.117 128.598C48.317 128.598 47.652 128.358 47.122 127.878C46.602 127.398 46.342 126.678 46.342 125.718V120.738H47.497V125.583C47.497 126.223 47.662 126.713 47.992 127.053C48.322 127.393 48.812 127.563 49.462 127.563C49.832 127.563 50.177 127.473 50.497 127.293C50.827 127.103 51.087 126.843 51.277 126.513C51.467 126.173 51.562 125.778 51.562 125.328V120.738H52.702V128.478H51.622V127.158C51.432 127.578 51.117 127.923 50.677 128.193C50.237 128.463 49.717 128.598 49.117 128.598ZM55.2203 120.738H56.3753V128.478H55.2203V120.738ZM55.7903 119.298C55.5303 119.298 55.3103 119.208 55.1303 119.028C54.9503 118.848 54.8603 118.628 54.8603 118.368C54.8603 118.108 54.9503 117.888 55.1303 117.708C55.3103 117.528 55.5303 117.438 55.7903 117.438C56.0603 117.438 56.2853 117.528 56.4653 117.708C56.6453 117.888 56.7353 118.108 56.7353 118.368C56.7353 118.628 56.6453 118.848 56.4653 119.028C56.2853 119.208 56.0603 119.298 55.7903 119.298ZM61.2371 128.598C60.6471 128.598 60.1871 128.408 59.8571 128.028C59.5271 127.638 59.3621 127.078 59.3621 126.348V121.713H58.1621V120.738H58.4621C58.7721 120.738 58.9971 120.668 59.1371 120.528C59.2871 120.378 59.3621 120.148 59.3621 119.838V118.623H60.5171V119.763C60.5171 120.193 60.3621 120.518 60.0521 120.738H62.3021V121.713H60.5171V126.468C60.5171 126.808 60.6021 127.073 60.7721 127.263C60.9521 127.443 61.1971 127.533 61.5071 127.533C61.9171 127.533 62.2321 127.498 62.4521 127.428V128.463C62.1321 128.553 61.7271 128.598 61.2371 128.598ZM66.8541 128.598C65.9341 128.598 65.2091 128.373 64.6791 127.923C64.1491 127.473 63.8641 126.888 63.8241 126.168L64.9791 126.078C65.0191 126.518 65.1991 126.878 65.5191 127.158C65.8391 127.428 66.2841 127.563 66.8541 127.563C67.3941 127.563 67.8291 127.453 68.1591 127.233C68.4891 127.013 68.6541 126.688 68.6541 126.258C68.6541 125.588 68.1891 125.188 67.2591 125.058L66.2691 124.923C64.7791 124.723 64.0341 124.008 64.0341 122.778C64.0341 122.358 64.1541 121.983 64.3941 121.653C64.6441 121.323 64.9791 121.068 65.3991 120.888C65.8291 120.708 66.2991 120.618 66.8091 120.618C67.6791 120.618 68.3591 120.803 68.8491 121.173C69.3491 121.533 69.6191 122.058 69.6591 122.748L68.5941 122.838C68.4741 122.408 68.2741 122.098 67.9941 121.908C67.7241 121.718 67.3291 121.623 66.8091 121.623C66.3091 121.623 65.9041 121.728 65.5941 121.938C65.2941 122.138 65.1441 122.408 65.1441 122.748C65.1441 123.078 65.2591 123.338 65.4891 123.528C65.7291 123.718 66.0891 123.848 66.5691 123.918L67.5591 124.053C69.0591 124.263 69.8091 124.968 69.8091 126.168C69.8091 126.938 69.5341 127.538 68.9841 127.968C68.4441 128.388 67.7341 128.598 66.8541 128.598Z" fill="#6D3805"/>
<g clip-path="url(#clip0_0_441)">
<path d="M46.372 42.5745C45.2546 42.727 44.2149 43.2172 43.3999 43.9757C42.5849 44.7342 42.0359 45.7226 41.8304 46.8011C41.625 47.8795 41.7736 48.9935 42.2551 49.9854C42.7367 50.9773 43.5269 51.7969 44.514 52.3282C45.501 52.8596 46.6349 53.0759 47.7554 52.9464C48.8758 52.8169 49.926 52.3483 50.7574 51.6068C51.5888 50.8653 52.1593 49.8885 52.3882 48.8145C52.6172 47.7405 52.493 46.6237 52.0332 45.6221C50.9159 45.5549 49.8281 45.2465 48.8488 44.7193C47.8695 44.1921 47.0234 43.4594 46.372 42.5745Z" fill="#612A83"/>
<path d="M64.3594 64.5097C64.3575 64.1353 64.3145 63.7622 64.2311 63.3967C63.0746 63.5483 61.8977 63.4324 60.7959 63.0585C59.6942 62.6847 58.6988 62.0634 57.8906 61.2451C56.7705 62.3634 55.3113 63.1035 53.7269 63.3569C53.5575 64.0759 53.5464 64.8215 53.6943 65.5449C53.8421 66.2683 54.1456 66.9532 54.5848 67.5547C55.024 68.1561 55.589 68.6605 56.2428 69.0348C56.8965 69.4091 57.6243 69.6449 58.3784 69.7267C59.1324 69.8084 59.8958 69.7343 60.6183 69.5092C61.3409 69.2842 62.0063 68.9132 62.5711 68.4206C63.1358 67.928 63.587 67.3249 63.8952 66.651C64.2034 65.977 64.3616 65.2473 64.3594 64.5097Z" fill="#612A83"/>
<path d="M36.6882 42.5724C35.8629 42.6791 35.0743 42.9706 34.3846 43.424C33.695 43.8774 33.123 44.4803 32.7138 45.1852C32.3046 45.89 32.0694 46.6776 32.0266 47.4859C31.9839 48.2942 32.1348 49.101 32.4674 49.843C32.8001 50.5849 33.3054 51.2416 33.9436 51.7614C34.5818 52.2812 35.3355 52.6498 36.1452 52.8382C36.9549 53.0267 37.7986 53.0298 38.6097 52.8473C39.4209 52.6648 40.1774 52.3017 40.8196 51.7866C40.1578 50.8178 39.743 49.7097 39.6095 48.5541C39.476 47.3984 39.6277 46.2284 40.052 45.1411C38.6983 44.6199 37.5296 43.7274 36.6882 42.5724Z" fill="#612A83"/>
<path d="M49.1372 54.8008C49.4487 56.4109 49.1891 58.0762 48.4009 59.5243C48.9069 60.0995 49.5352 60.5614 50.2424 60.8781C50.9497 61.1948 51.7191 61.3587 52.4978 61.3587C53.2764 61.3587 54.0458 61.1948 54.7531 60.8781C55.4603 60.5614 56.0886 60.0995 56.5946 59.5243C55.8037 58.0755 55.5443 56.4079 55.8594 54.7966C54.5834 54.4532 53.4241 53.7867 52.4999 52.8651C51.5731 53.7859 50.4134 54.4535 49.1372 54.8008Z" fill="#612A83"/>
<path d="M63.2812 61.3657C66.2584 61.3657 68.6719 59.0196 68.6719 56.1255C68.6719 53.2315 66.2584 50.8854 63.2812 50.8854C60.3041 50.8854 57.8906 53.2315 57.8906 56.1255C57.8906 59.0196 60.3041 61.3657 63.2812 61.3657Z" fill="#612A83"/>
<path d="M42.7968 33.0689C41.5159 33.0673 40.2764 33.51 39.3011 34.3172C38.3258 35.1245 37.6787 36.2434 37.476 37.4729C37.2733 38.7024 37.5284 39.9618 38.1955 41.0249C38.8625 42.0879 39.8976 42.8849 41.115 43.2725C42.1639 41.9368 43.656 40.9951 45.338 40.6073C44.977 39.5551 44.868 38.4367 45.0192 37.3374C45.1703 36.238 45.5777 35.1867 46.2102 34.2636C45.2486 33.494 44.0424 33.0718 42.7968 33.0689Z" fill="#612A83"/>
<path d="M60.0469 38.309C60.0479 39.7485 59.6105 41.1561 58.7898 42.3544C59.5787 42.9858 60.5359 43.3862 61.5499 43.509C62.564 43.6317 63.593 43.4718 64.5171 43.0478C65.4412 42.6238 66.2223 41.9532 66.7693 41.1142C67.3164 40.2752 67.6068 39.3023 67.6068 38.309C67.6068 37.3157 67.3164 36.3428 66.7693 35.5038C66.2223 34.6648 65.4412 33.9942 64.5171 33.5702C63.593 33.1462 62.564 32.9863 61.5499 33.109C60.5359 33.2318 59.5787 33.6322 58.7898 34.2636C59.6105 35.4619 60.0479 36.8695 60.0469 38.309Z" fill="#612A83"/>
<path d="M65.4375 47.7412C65.4361 48.1857 65.3931 48.6291 65.3092 49.066C67.2253 49.5894 68.8522 50.8255 69.8374 52.5066C70.7753 52.0874 71.5702 51.4159 72.1279 50.5714C72.6856 49.7269 72.9828 48.7448 72.9844 47.7412C72.9878 46.4773 72.5172 45.2554 71.6607 44.3044C70.8042 43.3534 69.6205 42.7384 68.3312 42.5745C67.4773 43.7316 66.2965 44.6231 64.9319 45.1411C65.2615 45.9708 65.4328 46.8519 65.4375 47.7412Z" fill="#612A83"/>
<path d="M53.5781 31.0566V26.7807C53.58 25.2951 54.1221 23.8579 55.1085 22.7232C56.0949 21.5884 57.4622 20.8292 58.9688 20.5795V18.4614C56.8854 18.7193 54.9701 19.7061 53.5811 21.2373C52.1921 22.7685 51.4245 24.7392 51.4219 26.7807V31.0566C52.136 30.9448 52.864 30.9448 53.5781 31.0566Z" fill="#B62D2D"/>
<path d="M52.5 43.5491C55.4772 43.5491 57.8906 41.203 57.8906 38.309C57.8906 35.4149 55.4772 33.0688 52.5 33.0688C49.5228 33.0688 47.1094 35.4149 47.1094 38.309C47.1094 41.203 49.5228 43.5491 52.5 43.5491Z" fill="#612A83"/>
<path d="M35.6736 35.908C36.07 34.8029 36.7318 33.8056 37.604 32.9989C38.4763 32.1922 39.5339 31.5993 40.689 31.2695C38.2658 30.3642 35.6896 29.9081 33.0936 29.9248C32.8077 29.9248 32.5335 29.8144 32.3313 29.6179C32.1291 29.4213 32.0155 29.1548 32.0155 28.8768C32.0155 28.5989 32.1291 28.3323 32.3313 28.1357C32.5335 27.9392 32.8077 27.8288 33.0936 27.8288C37.7304 27.7734 42.2688 29.1292 46.0732 31.7065C46.6375 31.9722 47.1655 32.3052 47.6451 32.6979C47.8251 32.5501 48.0138 32.4118 48.2079 32.2787C47.2044 30.0253 45.5453 28.106 43.4347 26.7569C41.3242 25.4077 38.854 24.6875 36.328 24.6847H25.592C25.8344 27.3518 26.9411 29.8754 28.7527 31.8922C30.5644 33.909 32.9876 35.3151 35.6736 35.908Z" fill="#55AE0F"/>
<path d="M56.5559 52.8138C57.1766 51.6234 58.1197 50.6201 59.2835 49.9121C60.4473 49.2041 61.7877 48.818 63.1605 48.7956C63.4012 47.7269 63.2802 46.6112 62.8155 45.6149C62.6128 45.6306 62.4101 45.6452 62.2031 45.6452C60.4272 45.6423 58.7093 45.0308 57.3515 43.9181C56.4561 44.6512 55.3969 45.1709 54.2584 45.4356C54.5167 46.1786 54.651 46.957 54.6562 47.7413C54.6577 48.9259 54.3616 50.093 53.7937 51.1411C54.5141 51.9632 55.4792 52.5476 56.5559 52.8138Z" fill="#612A83"/>
<path d="M52.5 77.0861C53.9292 77.0844 55.2993 76.5318 56.3099 75.5495C57.3204 74.5671 57.8889 73.2352 57.8906 71.846C57.8906 71.8177 57.882 71.7894 57.882 71.7611C56.7747 71.6033 55.7173 71.2082 54.7865 70.6042C53.8556 70.0003 53.0746 69.2026 52.5 68.269C51.9253 69.2027 51.1441 70.0005 50.2131 70.6044C49.282 71.2084 48.2244 71.6035 47.1169 71.7611C47.1169 71.7894 47.1094 71.8177 47.1094 71.846C47.1111 73.2352 47.6796 74.5671 48.6901 75.5495C49.7007 76.5318 51.0708 77.0844 52.5 77.0861Z" fill="#612A83"/>
<path d="M47.1093 56.1255C47.106 55.771 47.0656 55.4177 46.9886 55.0712C45.2545 55.046 43.5829 54.4379 42.2578 53.3503C41.4668 54.0083 40.5419 54.4966 39.5435 54.7832C38.5451 55.0698 37.4957 55.1483 36.4639 55.0136C36.2943 55.735 36.2837 56.4832 36.4331 57.2089C36.5824 57.9346 36.8881 58.6213 37.3302 59.2239C37.7722 59.8264 38.3406 60.3311 38.9978 60.7047C39.655 61.0783 40.3861 61.3123 41.1431 61.3914C41.9 61.4705 42.6656 61.3928 43.3895 61.1634C44.1133 60.9341 44.779 60.5583 45.3426 60.0608C45.9063 59.5633 46.3551 58.9554 46.6597 58.2771C46.9642 57.5988 47.1174 56.8655 47.1093 56.1255Z" fill="#612A83"/>
<path d="M46.0312 69.7499C46.8423 69.7589 47.6447 69.5878 48.3775 69.2496C49.1102 68.9115 49.7539 68.4152 50.2594 67.7987C50.7649 67.1821 51.119 66.4615 51.2947 65.6918C51.4704 64.922 51.463 64.1234 51.2731 63.3569C49.6891 63.1024 48.2302 62.3625 47.1094 61.2451C46.3009 62.0631 45.3055 62.6842 44.2038 63.0582C43.1022 63.4323 41.9254 63.5486 40.7689 63.3978C40.5901 64.1628 40.5917 64.9573 40.7736 65.7216C40.9555 66.486 41.3129 67.2004 41.8191 67.8115C42.3253 68.4225 42.9672 68.9143 43.6966 69.25C44.4261 69.5856 45.2242 69.7566 46.0312 69.7499Z" fill="#612A83"/>
</g>
<defs>
<clipPath id="clip0_0_441">
<rect width="69" height="83.8423" fill="white" transform="translate(18 14.2043)"/>
</clipPath>
</defs>
</svg>
