<svg width="100" height="135" viewBox="0 0 100 135" fill="none" xmlns="http://www.w3.org/2000/svg">
<rect width="100" height="100" rx="50" fill="#FFDEF6"/>
<path d="M36.3032 54.4876L47.267 83.2347C48.0949 85.4101 51.0151 85.434 51.8749 83.272L63.0716 55.1339C63.345 54.4461 62.75 53.6519 62.0769 53.88C57.9326 55.2845 47.5297 57.4169 37.3817 53.2697C36.6937 52.9888 36.0284 53.766 36.3032 54.4876Z" fill="#E18C39"/>
<path d="M38.6739 51.7757C38.6732 51.7757 38.6732 51.7757 38.6725 51.775C37.6274 51.3428 32.6446 50.5226 33.5335 45.3933C33.5335 45.3933 33.9041 43.389 35.3177 41.9514C35.7657 41.4952 36.5418 41.6142 36.8315 42.1823C38.485 45.425 46.141 52.7656 64.1892 48.4768C65.4935 48.167 66.1403 49.9834 64.9333 50.5627C59.3065 53.2626 50.3399 55.5259 38.6739 51.7757Z" fill="#FC77D7"/>
<path d="M41.7389 37.0742C41.002 36.1935 39.594 36.2885 38.9941 37.2657C38.1201 38.6885 37.665 40.7646 40.0087 42.9251C46.9099 49.2865 58.5027 47.6715 58.5027 47.6715C58.5027 47.6715 60.5845 47.5188 62.4965 46.4677C65.4089 44.8668 63.8774 40.4281 60.5774 40.8681C54.548 41.6727 45.5609 41.6453 41.7389 37.0742Z" fill="#FC77D7"/>
<path d="M58.796 36.0097C57.67 31.8181 54.5147 21.9755 49.6661 21.5495C46.7203 21.2898 45.6262 22.8231 45.2279 24.1726C45.0696 24.7077 45.7086 25.1181 46.1516 24.7746C46.594 24.431 47.1137 24.2184 47.6135 24.4754C48.2816 24.8203 48.2511 25.5954 48.0835 26.2318C47.9557 26.7162 47.7307 27.1696 47.4417 27.58C46.4846 28.9422 43.2129 33.6893 43.3933 34.67C43.3933 34.67 43.4394 37.8331 50.5167 38.8975C53.6173 39.3628 55.873 39.36 57.3107 38.8517C58.4765 38.4378 59.1155 37.1945 58.796 36.0097ZM56.5929 37.3255C56.2493 37.6852 55.6039 37.6725 55.3007 37.2797C55.0849 36.9995 55.1445 36.6806 55.4427 36.0871C56.2748 34.4348 55.3497 31.1971 55.2624 30.7332C55.251 30.6699 55.3468 30.6494 55.3696 30.7079C55.7785 31.8054 56.9273 34.8974 56.9451 36.0731C56.9522 36.6602 56.8009 37.1086 56.5929 37.3255Z" fill="#FC77D7"/>
<path d="M17.32 120.5H18.535V131H17.32V120.5ZM24.2325 131.12C23.5625 131.12 22.9525 130.96 22.4025 130.64C21.8625 130.32 21.4325 129.86 21.1125 129.26C20.8025 128.66 20.6475 127.95 20.6475 127.13C20.6475 126.31 20.8025 125.6 21.1125 125C21.4325 124.4 21.8625 123.94 22.4025 123.62C22.9525 123.3 23.5625 123.14 24.2325 123.14C25.0825 123.14 25.8025 123.355 26.3925 123.785C26.9825 124.205 27.3525 124.81 27.5025 125.6L26.3925 125.81C26.2725 125.28 26.0175 124.88 25.6275 124.61C25.2475 124.33 24.7825 124.19 24.2325 124.19C23.5225 124.19 22.9375 124.445 22.4775 124.955C22.0175 125.455 21.7875 126.18 21.7875 127.13C21.7875 128.08 22.0175 128.81 22.4775 129.32C22.9375 129.82 23.5225 130.07 24.2325 130.07C24.7725 130.07 25.2325 129.93 25.6125 129.65C26.0025 129.36 26.2625 128.96 26.3925 128.45L27.5175 128.555C27.3575 129.345 26.9825 129.97 26.3925 130.43C25.8025 130.89 25.0825 131.12 24.2325 131.12ZM35.9557 127.235H30.1957C30.2157 128.145 30.4557 128.845 30.9157 129.335C31.3857 129.825 31.9607 130.07 32.6407 130.07C33.1607 130.07 33.6057 129.945 33.9757 129.695C34.3557 129.445 34.6207 129.1 34.7707 128.66L35.8057 128.855C35.6257 129.555 35.2557 130.11 34.6957 130.52C34.1457 130.92 33.4607 131.12 32.6407 131.12C31.9407 131.12 31.3207 130.965 30.7807 130.655C30.2407 130.335 29.8157 129.875 29.5057 129.275C29.2057 128.665 29.0557 127.95 29.0557 127.13C29.0557 126.31 29.2107 125.6 29.5207 125C29.8407 124.4 30.2707 123.94 30.8107 123.62C31.3607 123.3 31.9707 123.14 32.6407 123.14C33.6707 123.14 34.4807 123.46 35.0707 124.1C35.6607 124.73 35.9557 125.585 35.9557 126.665V127.235ZM34.7857 126.275C34.7357 125.605 34.5107 125.09 34.1107 124.73C33.7107 124.36 33.2207 124.175 32.6407 124.175C32.0507 124.175 31.5407 124.355 31.1107 124.715C30.6807 125.075 30.4007 125.595 30.2707 126.275H34.7857ZM45.1505 131.12C44.4805 131.12 43.8705 130.96 43.3205 130.64C42.7805 130.32 42.3505 129.86 42.0305 129.26C41.7205 128.66 41.5655 127.95 41.5655 127.13C41.5655 126.31 41.7205 125.6 42.0305 125C42.3505 124.4 42.7805 123.94 43.3205 123.62C43.8705 123.3 44.4805 123.14 45.1505 123.14C46.0005 123.14 46.7205 123.355 47.3105 123.785C47.9005 124.205 48.2705 124.81 48.4205 125.6L47.3105 125.81C47.1905 125.28 46.9355 124.88 46.5455 124.61C46.1655 124.33 45.7005 124.19 45.1505 124.19C44.4405 124.19 43.8555 124.445 43.3955 124.955C42.9355 125.455 42.7055 126.18 42.7055 127.13C42.7055 128.08 42.9355 128.81 43.3955 129.32C43.8555 129.82 44.4405 130.07 45.1505 130.07C45.6905 130.07 46.1505 129.93 46.5305 129.65C46.9205 129.36 47.1805 128.96 47.3105 128.45L48.4355 128.555C48.2755 129.345 47.9005 129.97 47.3105 130.43C46.7205 130.89 46.0005 131.12 45.1505 131.12ZM54.4737 124.325C54.1437 124.225 53.8387 124.175 53.5587 124.175C53.2087 124.175 52.8837 124.27 52.5837 124.46C52.2837 124.64 52.0437 124.9 51.8637 125.24C51.6837 125.58 51.5937 125.97 51.5937 126.41V131H50.4387V123.26H51.5337V124.505C51.6937 124.095 51.9687 123.765 52.3587 123.515C52.7487 123.265 53.2137 123.14 53.7537 123.14C54.0537 123.14 54.2937 123.175 54.4737 123.245V124.325ZM62.6745 127.235H56.9145C56.9345 128.145 57.1745 128.845 57.6345 129.335C58.1045 129.825 58.6795 130.07 59.3595 130.07C59.8795 130.07 60.3245 129.945 60.6945 129.695C61.0745 129.445 61.3395 129.1 61.4895 128.66L62.5245 128.855C62.3445 129.555 61.9745 130.11 61.4145 130.52C60.8645 130.92 60.1795 131.12 59.3595 131.12C58.6595 131.12 58.0395 130.965 57.4995 130.655C56.9595 130.335 56.5345 129.875 56.2245 129.275C55.9245 128.665 55.7745 127.95 55.7745 127.13C55.7745 126.31 55.9295 125.6 56.2395 125C56.5595 124.4 56.9895 123.94 57.5295 123.62C58.0795 123.3 58.6895 123.14 59.3595 123.14C60.3895 123.14 61.1995 123.46 61.7895 124.1C62.3795 124.73 62.6745 125.585 62.6745 126.665V127.235ZM61.5045 126.275C61.4545 125.605 61.2295 125.09 60.8295 124.73C60.4295 124.36 59.9395 124.175 59.3595 124.175C58.7695 124.175 58.2595 124.355 57.8295 124.715C57.3995 125.075 57.1195 125.595 56.9895 126.275H61.5045ZM67.806 123.14C68.806 123.14 69.561 123.39 70.071 123.89C70.581 124.38 70.836 125.075 70.836 125.975V131H69.756V129.71C69.496 130.15 69.161 130.495 68.751 130.745C68.351 130.995 67.806 131.12 67.116 131.12C66.396 131.12 65.801 130.905 65.331 130.475C64.871 130.045 64.641 129.495 64.641 128.825C64.641 128.135 64.876 127.595 65.346 127.205C65.816 126.805 66.476 126.58 67.326 126.53L69.696 126.41V125.975C69.696 125.415 69.531 124.965 69.201 124.625C68.881 124.285 68.416 124.115 67.806 124.115C66.716 124.115 66.086 124.535 65.916 125.375L64.881 125.3C64.961 124.66 65.261 124.14 65.781 123.74C66.301 123.34 66.976 123.14 67.806 123.14ZM67.326 130.085C67.656 130.085 68.001 130.015 68.361 129.875C68.731 129.735 69.046 129.515 69.306 129.215C69.566 128.905 69.696 128.515 69.696 128.045V127.37L67.491 127.49C66.881 127.53 66.446 127.665 66.186 127.895C65.926 128.125 65.796 128.44 65.796 128.84C65.796 129.23 65.936 129.535 66.216 129.755C66.496 129.975 66.866 130.085 67.326 130.085ZM81.2999 123.14C82.0199 123.14 82.6149 123.365 83.0849 123.815C83.5549 124.255 83.7899 124.92 83.7899 125.81V131H82.6499V125.93C82.6499 125.37 82.5049 124.94 82.2149 124.64C81.9249 124.33 81.4999 124.175 80.9399 124.175C80.6199 124.175 80.3199 124.26 80.0399 124.43C79.7699 124.59 79.5499 124.82 79.3799 125.12C79.2099 125.42 79.1249 125.77 79.1249 126.17V131H77.9699V125.93C77.9699 125.37 77.8249 124.94 77.5349 124.64C77.2549 124.33 76.8349 124.175 76.2749 124.175C75.7749 124.175 75.3449 124.36 74.9849 124.73C74.6349 125.09 74.4599 125.57 74.4599 126.17V131H73.3049V123.26H74.3999V124.475C74.5599 124.085 74.8349 123.765 75.2249 123.515C75.6249 123.265 76.0899 123.14 76.6199 123.14C77.1299 123.14 77.5849 123.255 77.9849 123.485C78.3949 123.715 78.6949 124.06 78.8849 124.52C79.0849 124.1 79.3999 123.765 79.8299 123.515C80.2699 123.265 80.7599 123.14 81.2999 123.14Z" fill="#6D3805"/>
</svg>
