<svg width="100" height="135" viewBox="0 0 100 135" fill="none" xmlns="http://www.w3.org/2000/svg">
<rect width="100" height="100" rx="50" fill="#D3E6C4"/>
<path d="M65.4329 79.4325C65.4329 81.4338 63.8818 83 61.8998 83H40.3567C38.4609 83 36.8236 81.4338 36.8236 79.4325L33.5491 43.7571C35.7034 44.8883 38.2024 45.5844 40.7876 45.5844C49.3186 45.5844 56.2986 38.5364 56.2986 29.9221H68.2766V29.4C68.2766 26.7026 67.8457 25.5714 64.7435 25.5714H55.6092C55.4369 24.9623 55.2645 24.3532 55.006 23.8312H65.3467C67.9319 23.8312 70 25.9195 70 28.6169L65.4329 79.4325ZM39.9259 66.4675C40.4429 66.4675 40.7876 66.0325 40.7876 65.5974C40.7876 65.0753 40.4429 64.7273 39.9259 64.7273C39.4088 64.7273 39.0641 65.1623 39.0641 65.5974C39.0641 66.1195 39.495 66.4675 39.9259 66.4675ZM39.9259 53.4156C38.978 53.4156 38.2024 54.1987 38.2024 55.1558C38.2024 56.113 38.978 56.8961 39.9259 56.8961C40.8737 56.8961 41.6493 56.113 41.6493 55.1558C41.6493 54.1987 40.8737 53.4156 39.9259 53.4156ZM45.0962 77.7792C44.5792 77.7792 44.2345 78.2143 44.2345 78.6494C44.2345 79.1714 44.5792 79.5195 45.0962 79.5195C45.6132 79.5195 45.9579 79.0844 45.9579 78.6494C45.9579 78.1273 45.6132 77.7792 45.0962 77.7792ZM48.5431 66.4675C47.5952 66.4675 46.8196 67.2507 46.8196 68.2078C46.8196 69.1649 47.5952 69.9481 48.5431 69.9481C49.491 69.9481 50.2665 69.1649 50.2665 68.2078C50.2665 67.2507 49.491 66.4675 48.5431 66.4675ZM51.99 52.5455C51.4729 52.5455 51.1283 52.9805 51.1283 53.4156C51.1283 53.9377 51.4729 54.2857 51.99 54.2857C52.507 54.2857 52.8517 53.8507 52.8517 53.4156C52.8517 52.8935 52.507 52.5455 51.99 52.5455ZM60.6072 77.7792C61.5551 77.7792 62.3307 76.9961 62.3307 76.039C62.3307 75.0818 61.5551 74.2987 60.6072 74.2987C59.6593 74.2987 58.8838 75.0818 58.8838 76.039C58.8838 76.9961 59.6593 77.7792 60.6072 77.7792ZM57.1603 64.7273C56.6433 64.7273 56.2986 65.1623 56.2986 65.5974C56.2986 66.1195 56.6433 66.4675 57.1603 66.4675C57.6774 66.4675 58.022 66.0325 58.022 65.5974C58.022 65.0753 57.6774 64.7273 57.1603 64.7273ZM60.6072 45.5844C60.0902 45.5844 59.7455 46.0195 59.7455 46.4545C59.7455 46.9766 60.0902 47.3247 60.6072 47.3247C61.1242 47.3247 61.4689 46.8896 61.4689 46.4545C61.4689 45.9325 61.1242 45.5844 60.6072 45.5844ZM60.6072 55.1558C59.6593 55.1558 58.8838 55.939 58.8838 56.8961C58.8838 57.8532 59.6593 58.6364 60.6072 58.6364C61.5551 58.6364 62.3307 57.8532 62.3307 56.8961C62.3307 55.939 61.5551 55.1558 60.6072 55.1558ZM64.0541 34.2727C63.1062 34.2727 62.3307 35.0558 62.3307 36.013C62.3307 36.9701 63.1062 37.7532 64.0541 37.7532C65.002 37.7532 65.7776 36.9701 65.7776 36.013C65.7776 35.0558 65.002 34.2727 64.0541 34.2727ZM40.7876 43.8442C33.2044 43.8442 27 37.5792 27 29.9221C27 22.2649 33.2044 16 40.7876 16C48.3707 16 54.5751 22.2649 54.5751 29.9221C54.5751 37.5792 48.3707 43.8442 40.7876 43.8442ZM40.7876 17.7403C34.1523 17.7403 28.7234 23.2221 28.7234 29.9221C28.7234 36.6221 34.1523 42.1039 40.7876 42.1039C47.4228 42.1039 52.8517 36.6221 52.8517 29.9221C52.8517 23.2221 47.4228 17.7403 40.7876 17.7403ZM48.4569 37.0571C47.8537 37.4052 47.3367 37.6662 46.8196 37.0571C45.9579 36.1 42.4249 32.0974 41.9078 31.1403C41.5631 30.5312 41.7355 30.2701 42.511 30.1831C43.2866 30.1831 49.0601 31.0532 50.4389 31.3143C51.1283 31.4883 51.2144 31.9234 51.2144 32.6195C51.2144 34.0987 49.8357 36.361 48.4569 37.0571ZM50.3527 28.5299C49.0601 28.7909 43.6313 29.661 42.511 29.661C41.7355 29.661 41.5631 29.313 41.9078 28.7039C42.2525 28.0078 45.9579 23.7442 46.8196 22.787C47.2505 22.2649 47.7675 22.439 48.4569 22.787C49.8357 23.4831 51.2144 25.7455 51.1283 27.2247C51.1283 27.8338 51.1283 28.3558 50.3527 28.5299ZM41.3908 28.4429C41.0461 29.0519 40.6152 29.0519 40.2705 28.4429C39.8397 27.7468 37.7715 22.613 37.3407 21.3948C37.0822 20.7857 37.513 20.4377 38.2024 20.0896C39.495 19.3065 42.2525 19.3065 43.5451 20.0896C44.1483 20.4377 44.6653 20.6987 44.4068 21.3948C43.8898 22.613 41.9078 27.4857 41.3908 28.4429ZM39.7535 28.7039C40.0982 29.313 39.9258 29.574 39.1503 29.661C38.0301 29.661 32.6012 28.7909 31.3086 28.5299C30.5331 28.3558 30.5331 27.8338 30.5331 27.1377C30.4469 25.6584 31.8257 23.3961 33.2044 22.7C33.8938 22.3519 34.3246 22.1779 34.8417 22.7C35.7034 23.7442 39.3226 28.0078 39.7535 28.7039ZM31.2224 31.3143C32.515 31.0532 38.2886 30.1831 39.1503 30.1831C39.8397 30.1831 40.0982 30.5312 39.7535 31.1403C39.2365 32.0974 35.7034 36.1 34.8417 37.0571C34.3246 37.6662 33.8076 37.4052 33.2044 37.0571C31.8257 36.361 30.4469 34.0987 30.5331 32.6195C30.5331 31.9234 30.5331 31.4013 31.2224 31.3143ZM40.2705 31.4013C40.6152 30.7922 41.0461 30.7922 41.3908 31.4013C41.994 32.3584 43.8898 37.2312 44.3206 38.4494C44.5792 39.1455 44.0621 39.4065 43.4589 39.7545C42.1663 40.5377 39.4088 40.5377 38.1162 39.7545C37.4269 39.3195 37.0822 39.0584 37.2545 38.4494C37.6854 37.2312 39.8397 32.0974 40.2705 31.4013Z" fill="#55AE0F"/>
<path d="M40.035 131.12C39.085 131.12 38.335 130.86 37.785 130.34C37.245 129.82 36.93 129.09 36.84 128.15L38.07 128.045C38.11 128.685 38.3 129.18 38.64 129.53C38.99 129.87 39.455 130.04 40.035 130.04C40.645 130.04 41.105 129.84 41.415 129.44C41.725 129.03 41.88 128.45 41.88 127.7V120.5H43.095V127.82C43.095 128.84 42.83 129.645 42.3 130.235C41.78 130.825 41.025 131.12 40.035 131.12ZM48.3246 131.12C47.5246 131.12 46.8596 130.88 46.3296 130.4C45.8096 129.92 45.5496 129.2 45.5496 128.24V123.26H46.7046V128.105C46.7046 128.745 46.8696 129.235 47.1996 129.575C47.5296 129.915 48.0196 130.085 48.6696 130.085C49.0396 130.085 49.3846 129.995 49.7046 129.815C50.0346 129.625 50.2946 129.365 50.4846 129.035C50.6746 128.695 50.7696 128.3 50.7696 127.85V123.26H51.9096V131H50.8296V129.68C50.6396 130.1 50.3246 130.445 49.8846 130.715C49.4446 130.985 48.9246 131.12 48.3246 131.12ZM54.428 123.26H55.583V131H54.428V123.26ZM54.998 121.82C54.738 121.82 54.518 121.73 54.338 121.55C54.158 121.37 54.068 121.15 54.068 120.89C54.068 120.63 54.158 120.41 54.338 120.23C54.518 120.05 54.738 119.96 54.998 119.96C55.268 119.96 55.493 120.05 55.673 120.23C55.853 120.41 55.943 120.63 55.943 120.89C55.943 121.15 55.853 121.37 55.673 121.55C55.493 121.73 55.268 121.82 54.998 121.82ZM61.2247 131.12C60.5547 131.12 59.9447 130.96 59.3947 130.64C58.8547 130.32 58.4247 129.86 58.1047 129.26C57.7947 128.66 57.6397 127.95 57.6397 127.13C57.6397 126.31 57.7947 125.6 58.1047 125C58.4247 124.4 58.8547 123.94 59.3947 123.62C59.9447 123.3 60.5547 123.14 61.2247 123.14C62.0747 123.14 62.7947 123.355 63.3847 123.785C63.9747 124.205 64.3447 124.81 64.4947 125.6L63.3847 125.81C63.2647 125.28 63.0097 124.88 62.6197 124.61C62.2397 124.33 61.7747 124.19 61.2247 124.19C60.5147 124.19 59.9297 124.445 59.4697 124.955C59.0097 125.455 58.7797 126.18 58.7797 127.13C58.7797 128.08 59.0097 128.81 59.4697 129.32C59.9297 129.82 60.5147 130.07 61.2247 130.07C61.7647 130.07 62.2247 129.93 62.6047 129.65C62.9947 129.36 63.2547 128.96 63.3847 128.45L64.5097 128.555C64.3497 129.345 63.9747 129.97 63.3847 130.43C62.7947 130.89 62.0747 131.12 61.2247 131.12ZM72.9479 127.235H67.1879C67.2079 128.145 67.4479 128.845 67.9079 129.335C68.3779 129.825 68.9529 130.07 69.6329 130.07C70.1529 130.07 70.5979 129.945 70.9679 129.695C71.3479 129.445 71.6129 129.1 71.7629 128.66L72.7979 128.855C72.6179 129.555 72.2479 130.11 71.6879 130.52C71.1379 130.92 70.4529 131.12 69.6329 131.12C68.9329 131.12 68.3129 130.965 67.7729 130.655C67.2329 130.335 66.8079 129.875 66.4979 129.275C66.1979 128.665 66.0479 127.95 66.0479 127.13C66.0479 126.31 66.2029 125.6 66.5129 125C66.8329 124.4 67.2629 123.94 67.8029 123.62C68.3529 123.3 68.9629 123.14 69.6329 123.14C70.6629 123.14 71.4729 123.46 72.0629 124.1C72.6529 124.73 72.9479 125.585 72.9479 126.665V127.235ZM71.7779 126.275C71.7279 125.605 71.5029 125.09 71.1029 124.73C70.7029 124.36 70.2129 124.175 69.6329 124.175C69.0429 124.175 68.5329 124.355 68.1029 124.715C67.6729 125.075 67.3929 125.595 67.2629 126.275H71.7779Z" fill="#6D3805"/>
</svg>
