<svg width="100" height="149" viewBox="0 0 100 149" fill="none" xmlns="http://www.w3.org/2000/svg">
<rect y="0.555542" width="100" height="97.491" rx="48.7455" fill="#FACCCC"/>
<path d="M39.7042 51.0977C36.9407 50.2728 34.0386 49.8238 31.1248 49.6881C29.6448 49.6254 28.2226 49.6672 26.812 49.6985C25.3898 49.7403 23.9792 49.7716 22.557 49.8447L20.4295 49.9387C19.7936 49.97 19.0882 49.9491 18.4061 49.9074C17.0417 49.8343 15.6079 49.6985 14.4054 49.3331L14.3592 49.3226C14.1742 49.2704 13.9545 49.3331 13.8504 49.4897C13.7232 49.6776 13.7926 49.9178 13.9892 50.0327C14.6829 50.419 15.3767 50.6174 16.082 50.8158C16.7873 51.0038 17.4926 51.15 18.2211 51.2753C18.9495 51.3901 19.6664 51.4841 20.4411 51.5154L22.5686 51.5676C23.9907 51.6094 25.4014 51.599 26.8236 51.6198C28.2457 51.6303 29.6564 51.5885 31.0207 51.6721C36.5361 51.8913 41.9473 53.113 47.0579 55.2223C47.2314 55.2954 47.4511 55.2536 47.5667 55.1075C47.6939 54.9404 47.6592 54.7107 47.4742 54.5958C45.1154 53.0713 42.4792 51.9018 39.7042 51.0977Z" fill="#B62D2D"/>
<path d="M83.9884 49.5106C83.1906 34.3802 66.7487 22.5286 46.5259 22.5286C29.5753 22.5286 14.6828 31.0805 10.3006 43.3394C10.0578 44.0181 10.0347 44.6551 10.0231 45.2816C10.0116 45.3547 10 45.4278 10 45.5008V51.766C10 55.285 13.7463 57.9372 18.7066 57.9372H29.2053C38.1084 57.9372 46.4681 60.8087 52.1569 65.8C55.6372 68.8595 60.5859 70.5615 65.8931 70.5615C66.2978 70.5615 66.7025 70.5511 67.1072 70.5302C76.8081 70.0499 84 63.2522 84 55.8384V50.064C84 49.6776 84 49.5628 83.9884 49.5106ZM80.3 55.097C79.8722 55.8279 79.3519 56.5171 78.7622 57.1541C76.7966 59.2842 74.1025 60.8923 71.1309 61.7485C69.6394 62.1766 68.0784 62.4272 66.5059 62.4899C64.9219 62.5734 63.3263 62.4899 61.7653 62.2184C58.655 61.6859 55.6256 60.4746 53.2438 58.522C53.0934 58.3967 52.8506 58.3967 52.7003 58.5324C52.55 58.6681 52.5384 58.8979 52.6887 59.0336C55.0475 61.2264 58.1578 62.7405 61.4762 63.4506C64.7831 64.1606 68.3097 64.1815 71.6512 63.3253C73.0966 62.9598 74.5072 62.4377 75.8253 61.759C76.6116 61.3622 77.5713 61.8425 77.5713 62.657C77.5713 63.8578 76.9238 64.9855 75.8369 65.6851C73.3741 67.2619 70.31 68.2747 66.9916 68.4418C61.8809 68.682 57.0594 67.1783 53.7756 64.2964C47.6591 58.9188 38.6981 55.8384 29.2053 55.8384H18.7066C15.6078 55.8488 12.3125 54.4183 12.3125 51.766V45.647C12.3241 45.5844 12.3356 45.5113 12.3356 45.4382C12.3356 44.9161 12.3472 44.4253 12.5091 43.9763C16.5791 32.5737 30.5697 24.617 46.5259 24.617C65.5231 24.617 80.9591 35.6019 81.6759 49.6254V49.6985C81.6991 51.5676 81.2828 53.4472 80.3 55.097Z" fill="#B62D2D"/>
<path d="M18.7065 47.4953H29.2053H29.2168C30.1071 47.4953 30.8587 46.9105 30.9743 46.1169C31.6218 41.7835 34.339 37.9722 38.3628 35.6541C39.3803 35.0694 39.6346 33.8372 38.9756 32.9183C38.5015 32.2605 38.0737 31.5922 37.6806 30.8926C36.6862 29.1488 34.4084 28.3447 32.3849 29.0443C23.8287 32.0099 17.2034 37.6067 14.7059 44.6237C14.6481 44.8012 14.4515 45.3442 15.0181 46.0438C15.5846 46.7434 16.8449 47.4953 18.7065 47.4953Z" fill="#B62D2D"/>
<path d="M59.3488 33.952C61.7654 32.5006 61.3491 29.1383 58.5857 28.3447C54.851 27.2901 50.781 26.7053 46.526 26.7053C45.4391 26.7053 44.3638 26.7471 43.2885 26.8202C40.7448 27.0081 39.3457 29.5038 40.6985 31.4668C42.4098 33.952 44.6876 36.1031 47.3932 37.7633C49.5438 39.0895 52.4229 38.8806 54.4116 37.3561C55.776 36.291 57.5219 35.0484 59.3488 33.952Z" fill="#B62D2D"/>
<path d="M46.815 39.904C45.601 39.2044 44.4447 38.4212 43.381 37.565C42.3982 36.7714 40.9528 36.6565 39.8313 37.283C36.4088 39.1835 34.0385 42.3161 33.3447 45.9185C33.1597 46.8583 33.9113 47.7459 34.9519 47.8816C38.4553 48.3202 41.82 49.1555 44.9419 50.3564C46.4797 50.9516 48.1563 49.97 48.2835 48.4664C48.3875 47.2551 48.6188 46.0647 48.9657 44.8952C49.5553 42.9948 48.6535 40.9586 46.815 39.904Z" fill="#B62D2D"/>
<path d="M65.7429 34.4533C65.6504 34.4637 65.5694 34.4742 65.5 34.495C61.0947 35.3304 57.1519 37.7112 54.6197 41.1466C52.3535 44.2165 51.3591 47.913 51.81 51.5781C51.995 53.113 52.8507 54.5123 54.1457 55.5251C54.5735 55.8593 54.9782 56.2039 55.3829 56.5484C57.9729 58.8248 61.8 60.13 65.9047 60.13C66.2285 60.13 66.5407 60.1196 66.8644 60.1091C73.9175 59.7646 79.641 55.0135 79.3635 49.7298C79.1322 45.1354 77.1435 40.9064 73.8944 37.3457C71.9172 35.1633 68.8185 34.0252 65.7429 34.4533ZM66.6563 52.8102C63.465 52.8102 60.875 50.9411 60.875 48.6334C60.875 46.3258 63.465 44.4567 66.6563 44.4567C69.8475 44.4567 72.4375 46.3258 72.4375 48.6334C72.4375 50.9411 69.8475 52.8102 66.6563 52.8102Z" fill="#B62D2D"/>
<path d="M66.6562 46.545C64.7369 46.545 63.1875 47.4848 63.1875 48.6334C63.1875 48.8109 63.2338 48.9885 63.3147 49.1555C63.6963 48.2575 65.0375 47.5892 66.6562 47.5892C68.275 47.5892 69.6162 48.2575 69.9978 49.1555C70.0787 48.9885 70.125 48.8109 70.125 48.6334C70.125 47.4744 68.5756 46.545 66.6562 46.545Z" fill="#B62D2D"/>
<path d="M30.5334 119.073H31.9584L35.3484 124.503L38.7234 119.073H40.1484V129.573H38.9634V120.738L35.5884 126.123H35.0934L31.7184 120.738V129.573H30.5334V119.073ZM49.1691 125.808H43.4091C43.4291 126.718 43.6691 127.418 44.1291 127.908C44.5991 128.398 45.1741 128.643 45.8541 128.643C46.3741 128.643 46.8191 128.518 47.1891 128.268C47.5691 128.018 47.8341 127.673 47.9841 127.233L49.0191 127.428C48.8391 128.128 48.4691 128.683 47.9091 129.093C47.3591 129.493 46.6741 129.693 45.8541 129.693C45.1541 129.693 44.5341 129.538 43.9941 129.228C43.4541 128.908 43.0291 128.448 42.7191 127.848C42.4191 127.238 42.2691 126.523 42.2691 125.703C42.2691 124.883 42.4241 124.173 42.7341 123.573C43.0541 122.973 43.4841 122.513 44.0241 122.193C44.5741 121.873 45.1841 121.713 45.8541 121.713C46.8841 121.713 47.6941 122.033 48.2841 122.673C48.8741 123.303 49.1691 124.158 49.1691 125.238V125.808ZM47.9991 124.848C47.9491 124.178 47.7241 123.663 47.3241 123.303C46.9241 122.933 46.4341 122.748 45.8541 122.748C45.2641 122.748 44.7541 122.928 44.3241 123.288C43.8941 123.648 43.6141 124.168 43.4841 124.848H47.9991ZM54.3006 121.713C55.3006 121.713 56.0556 121.963 56.5656 122.463C57.0756 122.953 57.3306 123.648 57.3306 124.548V129.573H56.2506V128.283C55.9906 128.723 55.6556 129.068 55.2456 129.318C54.8456 129.568 54.3006 129.693 53.6106 129.693C52.8906 129.693 52.2956 129.478 51.8256 129.048C51.3656 128.618 51.1356 128.068 51.1356 127.398C51.1356 126.708 51.3706 126.168 51.8406 125.778C52.3106 125.378 52.9706 125.153 53.8206 125.103L56.1906 124.983V124.548C56.1906 123.988 56.0256 123.538 55.6956 123.198C55.3756 122.858 54.9106 122.688 54.3006 122.688C53.2106 122.688 52.5806 123.108 52.4106 123.948L51.3756 123.873C51.4556 123.233 51.7556 122.713 52.2756 122.313C52.7956 121.913 53.4706 121.713 54.3006 121.713ZM53.8206 128.658C54.1506 128.658 54.4956 128.588 54.8556 128.448C55.2256 128.308 55.5406 128.088 55.8006 127.788C56.0606 127.478 56.1906 127.088 56.1906 126.618V125.943L53.9856 126.063C53.3756 126.103 52.9406 126.238 52.6806 126.468C52.4206 126.698 52.2906 127.013 52.2906 127.413C52.2906 127.803 52.4306 128.108 52.7106 128.328C52.9906 128.548 53.3606 128.658 53.8206 128.658ZM62.1396 129.693C61.5496 129.693 61.0896 129.503 60.7596 129.123C60.4296 128.733 60.2646 128.173 60.2646 127.443V122.808H59.0646V121.833H59.3646C59.6746 121.833 59.8996 121.763 60.0396 121.623C60.1896 121.473 60.2646 121.243 60.2646 120.933V119.718H61.4196V120.858C61.4196 121.288 61.2646 121.613 60.9546 121.833H63.2046V122.808H61.4196V127.563C61.4196 127.903 61.5046 128.168 61.6746 128.358C61.8546 128.538 62.0996 128.628 62.4096 128.628C62.8196 128.628 63.1346 128.593 63.3546 128.523V129.558C63.0346 129.648 62.6296 129.693 62.1396 129.693Z" fill="#6D3805"/>
</svg>
