<svg width="100" height="135" viewBox="0 0 100 135" fill="none" xmlns="http://www.w3.org/2000/svg">
<rect width="100" height="100" rx="50" fill="#DAF2FC"/>
<path fill-rule="evenodd" clip-rule="evenodd" d="M39.6801 28.0043C34.9675 28.0043 30.2091 28.0043 25.4965 28.0043C24.0623 28.1833 24.1744 30.2923 25.62 30.3202H26.5031V30.5654C26.3772 35.9067 21.1072 41.767 21 47.7628H44.1731C43.5415 41.6519 38.8248 35.9169 38.8248 30.57V30.3202H39.5531C41.1534 30.462 41.2867 28.0342 39.6812 28L39.6801 28.0043ZM21.0312 66.3674V75.6043C21.0312 77.0881 21.5209 78.6482 22.3969 79.8272C23.3951 81.1711 25.2124 82.6427 26.5026 82.6427H38.8243C40.1982 82.6427 41.4249 81.6118 42.3793 80.4902C41.5615 78.434 41.0593 76.0695 40.6724 73.9556C40.1686 71.2086 39.9304 68.9422 39.9304 68.9422C39.9304 68.8655 39.9304 68.7888 39.9304 68.7098C38.784 68.3108 37.8133 67.4779 37.3405 66.3666L21.0312 66.3674Z" fill="#8ABDD2"/>
<path fill-rule="evenodd" clip-rule="evenodd" d="M60.3134 47.7637C59.851 47.7637 59.3919 47.8242 58.9661 47.9683C57.5044 48.4659 56.1338 49.6075 55.1061 51.2606C56.7202 52.9693 57.8272 55.379 58.2924 58.2039H61.7336C62.2277 55.156 63.5125 52.6483 65.3068 50.9473C64.3242 49.4513 63.0662 48.3931 61.6697 47.9683C61.239 47.8381 60.7755 47.766 60.3134 47.7637Z" fill="white"/>
<path d="M34.9722 58.2289C34.9722 59.5128 33.9288 60.554 32.6417 60.554C31.3546 60.554 30.3112 59.5128 30.3112 58.2289C30.3112 56.9448 32.6417 53.5789 32.6417 53.5789C32.6417 53.5789 34.9722 56.9448 34.9722 58.2289Z" fill="white"/>
<path fill-rule="evenodd" clip-rule="evenodd" d="M41.9656 68.7344C41.9656 68.7344 42.8542 77.5027 44.9756 81.2463C45.3007 81.8201 45.7243 82.6478 46.3922 82.6415C48.5163 82.616 51.3494 82.616 53.4747 82.6415C54.1423 82.6415 54.5291 81.799 54.8912 81.2463C56.251 79.1717 57.5472 74.3163 57.5472 74.3163L62.5041 74.2908C62.5041 74.2908 64.0843 79.1393 65.5142 81.2205C65.8885 81.7655 66.2629 82.622 66.9307 82.616C69.056 82.5904 71.8891 82.5904 74.0132 82.616C74.6809 82.616 75.1121 81.7996 75.4297 81.2205C77.4885 77.472 78.0856 68.7086 78.0856 68.7086" fill="#8ABDD2"/>
<path fill-rule="evenodd" clip-rule="evenodd" d="M70.5094 50.67C70.047 50.67 69.5879 50.7305 69.1621 50.8747C66.407 51.8128 63.9744 55.0115 63.5952 59.7162H77.4145C76.9864 55.0789 74.6853 51.7322 71.8658 50.8747C71.4351 50.7445 70.9715 50.6747 70.5094 50.67Z" fill="white"/>
<path fill-rule="evenodd" clip-rule="evenodd" d="M49.5347 50.67C49.0723 50.67 48.6132 50.7305 48.1874 50.8747C45.4323 51.8128 42.9997 55.0115 42.6205 59.7162H56.4398C56.0117 55.0789 53.7105 51.7322 50.8911 50.8747C50.4604 50.7445 49.9968 50.6747 49.5347 50.67Z" fill="white"/>
<path d="M41.3811 61.7083H78.6695C79.9606 61.7083 81 62.6416 81 63.8008V64.847C81 66.0063 79.9606 66.9396 78.6695 66.9396H41.3811C40.09 66.9396 39.0505 66.0063 39.0505 64.847V63.8008C39.0505 62.6416 40.09 61.7083 41.3811 61.7083Z" fill="#8ABDD2"/>
<path d="M20.145 129.92V131H13.32V120.5H19.98V121.58H14.535V124.835H19.275V125.915H14.535V129.92H20.145ZM25.7645 129.5C26.6045 129.5 27.2495 129.665 27.6995 129.995C28.1495 130.325 28.3745 130.83 28.3745 131.51C28.3745 132.25 28.0895 132.83 27.5195 133.25C26.9495 133.67 26.2445 133.88 25.4045 133.88H24.6545C23.8045 133.88 23.0945 133.67 22.5245 133.25C21.9645 132.83 21.6845 132.25 21.6845 131.51C21.6845 131.24 21.7445 130.97 21.8645 130.7C21.9845 130.42 22.1545 130.185 22.3745 129.995C22.0645 129.685 21.9095 129.295 21.9095 128.825C21.9095 128.505 21.9895 128.22 22.1495 127.97C22.3195 127.72 22.5495 127.525 22.8395 127.385C22.4395 126.925 22.2395 126.37 22.2395 125.72C22.2395 125.22 22.3595 124.775 22.5995 124.385C22.8395 123.985 23.1645 123.68 23.5745 123.47C23.9945 123.25 24.4545 123.14 24.9545 123.14C25.5045 123.14 25.9995 123.27 26.4395 123.53C26.8795 123.23 27.1545 122.74 27.2645 122.06L28.2245 122.3C28.1245 123.15 27.7595 123.765 27.1295 124.145C27.4795 124.595 27.6545 125.12 27.6545 125.72C27.6545 126.22 27.5345 126.67 27.2945 127.07C27.0545 127.46 26.7245 127.765 26.3045 127.985C25.8945 128.195 25.4445 128.3 24.9545 128.3C24.4445 128.3 23.9795 128.19 23.5595 127.97C23.3695 128.03 23.2195 128.125 23.1095 128.255C22.9995 128.385 22.9445 128.54 22.9445 128.72C22.9445 128.95 23.0245 129.14 23.1845 129.29C23.3445 129.43 23.5445 129.5 23.7845 129.5H25.7645ZM24.9545 124.13C24.4845 124.13 24.0945 124.275 23.7845 124.565C23.4845 124.845 23.3345 125.23 23.3345 125.72C23.3345 126.21 23.4845 126.6 23.7845 126.89C24.0945 127.17 24.4845 127.31 24.9545 127.31C25.4245 127.31 25.8095 127.17 26.1095 126.89C26.4195 126.6 26.5745 126.21 26.5745 125.72C26.5745 125.23 26.4195 124.845 26.1095 124.565C25.8095 124.275 25.4245 124.13 24.9545 124.13ZM25.3145 132.875C25.8745 132.875 26.3345 132.77 26.6945 132.56C27.0545 132.36 27.2345 132.02 27.2345 131.54C27.2345 131.2 27.0895 130.945 26.7995 130.775C26.5095 130.595 26.1095 130.505 25.5995 130.505H23.7245C23.6245 130.505 23.4845 130.495 23.3045 130.475C23.1345 130.595 23.0045 130.745 22.9145 130.925C22.8345 131.095 22.7945 131.275 22.7945 131.465C22.7945 131.915 22.9645 132.26 23.3045 132.5C23.6445 132.75 24.1295 132.875 24.7595 132.875H25.3145ZM33.7039 129.5C34.5439 129.5 35.1889 129.665 35.6389 129.995C36.0889 130.325 36.3139 130.83 36.3139 131.51C36.3139 132.25 36.0289 132.83 35.4589 133.25C34.8889 133.67 34.1839 133.88 33.3439 133.88H32.5939C31.7439 133.88 31.0339 133.67 30.4639 133.25C29.9039 132.83 29.6239 132.25 29.6239 131.51C29.6239 131.24 29.6839 130.97 29.8039 130.7C29.9239 130.42 30.0939 130.185 30.3139 129.995C30.0039 129.685 29.8489 129.295 29.8489 128.825C29.8489 128.505 29.9289 128.22 30.0889 127.97C30.2589 127.72 30.4889 127.525 30.7789 127.385C30.3789 126.925 30.1789 126.37 30.1789 125.72C30.1789 125.22 30.2989 124.775 30.5389 124.385C30.7789 123.985 31.1039 123.68 31.5139 123.47C31.9339 123.25 32.3939 123.14 32.8939 123.14C33.4439 123.14 33.9389 123.27 34.3789 123.53C34.8189 123.23 35.0939 122.74 35.2039 122.06L36.1639 122.3C36.0639 123.15 35.6989 123.765 35.0689 124.145C35.4189 124.595 35.5939 125.12 35.5939 125.72C35.5939 126.22 35.4739 126.67 35.2339 127.07C34.9939 127.46 34.6639 127.765 34.2439 127.985C33.8339 128.195 33.3839 128.3 32.8939 128.3C32.3839 128.3 31.9189 128.19 31.4989 127.97C31.3089 128.03 31.1589 128.125 31.0489 128.255C30.9389 128.385 30.8839 128.54 30.8839 128.72C30.8839 128.95 30.9639 129.14 31.1239 129.29C31.2839 129.43 31.4839 129.5 31.7239 129.5H33.7039ZM32.8939 124.13C32.4239 124.13 32.0339 124.275 31.7239 124.565C31.4239 124.845 31.2739 125.23 31.2739 125.72C31.2739 126.21 31.4239 126.6 31.7239 126.89C32.0339 127.17 32.4239 127.31 32.8939 127.31C33.3639 127.31 33.7489 127.17 34.0489 126.89C34.3589 126.6 34.5139 126.21 34.5139 125.72C34.5139 125.23 34.3589 124.845 34.0489 124.565C33.7489 124.275 33.3639 124.13 32.8939 124.13ZM33.2539 132.875C33.8139 132.875 34.2739 132.77 34.6339 132.56C34.9939 132.36 35.1739 132.02 35.1739 131.54C35.1739 131.2 35.0289 130.945 34.7389 130.775C34.4489 130.595 34.0489 130.505 33.5389 130.505H31.6639C31.5639 130.505 31.4239 130.495 31.2439 130.475C31.0739 130.595 30.9439 130.745 30.8539 130.925C30.7739 131.095 30.7339 131.275 30.7339 131.465C30.7339 131.915 30.9039 132.26 31.2439 132.5C31.5839 132.75 32.0689 132.875 32.6989 132.875H33.2539ZM48.7666 131L47.5666 129.71C47.1266 130.18 46.6766 130.535 46.2166 130.775C45.7566 131.005 45.2066 131.12 44.5666 131.12C43.6366 131.12 42.8866 130.855 42.3166 130.325C41.7466 129.795 41.4616 129.09 41.4616 128.21C41.4616 127.45 41.6466 126.845 42.0166 126.395C42.3866 125.945 42.8816 125.595 43.5016 125.345C42.8916 124.605 42.5866 123.835 42.5866 123.035C42.5866 122.525 42.7016 122.07 42.9316 121.67C43.1716 121.27 43.4966 120.955 43.9066 120.725C44.3266 120.495 44.7916 120.38 45.3016 120.38C45.8416 120.38 46.3116 120.49 46.7116 120.71C47.1216 120.92 47.4316 121.21 47.6416 121.58C47.8616 121.95 47.9716 122.36 47.9716 122.81C47.9716 123.57 47.7316 124.21 47.2516 124.73C46.7816 125.25 46.1666 125.6 45.4066 125.78L47.5366 128.045L49.0666 126.125L49.8616 126.89L48.2866 128.855L50.3116 131H48.7666ZM44.6566 124.985L44.8816 124.94C45.4816 124.81 45.9666 124.595 46.3366 124.295C46.7166 123.985 46.9066 123.51 46.9066 122.87C46.9066 122.41 46.7566 122.045 46.4566 121.775C46.1666 121.495 45.7916 121.355 45.3316 121.355C44.8316 121.355 44.4266 121.505 44.1166 121.805C43.8166 122.105 43.6666 122.505 43.6666 123.005C43.6666 123.645 43.9666 124.275 44.5666 124.895L44.6566 124.985ZM44.5516 130.055C45.0316 130.055 45.4416 129.965 45.7816 129.785C46.1216 129.595 46.4666 129.305 46.8166 128.915L44.1916 126.095C43.6916 126.285 43.3066 126.54 43.0366 126.86C42.7666 127.18 42.6316 127.61 42.6316 128.15C42.6316 128.74 42.8166 129.205 43.1866 129.545C43.5666 129.885 44.0216 130.055 44.5516 130.055ZM55.8884 120.5H57.3134L60.7034 125.93L64.0784 120.5H65.5034V131H64.3184V122.165L60.9434 127.55H60.4484L57.0734 122.165V131H55.8884V120.5ZM68.0891 123.26H69.2441V131H68.0891V123.26ZM68.6591 121.82C68.3991 121.82 68.1791 121.73 67.9991 121.55C67.8191 121.37 67.7291 121.15 67.7291 120.89C67.7291 120.63 67.8191 120.41 67.9991 120.23C68.1791 120.05 68.3991 119.96 68.6591 119.96C68.9291 119.96 69.1541 120.05 69.3341 120.23C69.5141 120.41 69.6041 120.63 69.6041 120.89C69.6041 121.15 69.5141 121.37 69.3341 121.55C69.1541 121.73 68.9291 121.82 68.6591 121.82ZM72.9209 131H71.7659V120.11H72.9209V131ZM77.6776 127.025L76.5976 128.135V131H75.4426V120.11H76.5976V126.65L79.8976 123.26H81.3076L78.4426 126.215L81.7726 131H80.4076L77.6776 127.025Z" fill="#6D3805"/>
</svg>
