<svg width="67" height="73" viewBox="0 0 67 73" fill="none" xmlns="http://www.w3.org/2000/svg">
<path d="M7.40234 54.3876V55.8957H18.9318V51.3715H17.4906C17.1084 51.3715 16.7418 51.2126 16.4716 50.9298C16.2013 50.647 16.0494 50.2634 16.0494 49.8635C16.0494 49.4635 16.2013 49.0799 16.4716 48.7971C16.7418 48.5143 17.1084 48.3554 17.4906 48.3554H18.9318V43.8313H17.4906C14.8151 43.8313 12.2491 44.9435 10.3571 46.9232C8.46521 48.9029 7.40234 51.5879 7.40234 54.3876Z" fill="#FBA53E"/>
<path d="M66.4909 63.4358C66.4909 60.2361 65.2762 57.1675 63.114 54.905C60.9518 52.6425 58.0192 51.3714 54.9614 51.3714H53.5202L49.7443 30.2588H43.4319V57.4036H31.9025C30.3736 57.4036 28.9073 56.7681 27.8262 55.6368C26.7451 54.5056 26.1377 52.9713 26.1377 51.3714V36.291H17.4906C12.9039 36.291 8.50506 38.1976 5.26177 41.5913C2.01847 44.9851 0.196411 49.588 0.196411 54.3875V63.4358H66.4909ZM21.8142 57.4036C21.8142 57.8036 21.6623 58.1872 21.3921 58.47C21.1218 58.7528 20.7552 58.9117 20.373 58.9117H5.96115C5.57892 58.9117 5.21235 58.7528 4.94208 58.47C4.6718 58.1872 4.51996 57.8036 4.51996 57.4036V54.3875C4.51996 50.7879 5.88651 47.3357 8.31898 44.7904C10.7515 42.2451 14.0506 40.8151 17.4906 40.8151H20.373C20.7552 40.8151 21.1218 40.974 21.3921 41.2568C21.6623 41.5396 21.8142 41.9232 21.8142 42.3232V57.4036Z" fill="#FBA53E"/>
<path d="M60.5821 66.4519H46.4585C46.7893 68.1564 47.673 69.6889 48.96 70.7896C50.247 71.8903 51.8581 72.4916 53.5203 72.4916C55.1825 72.4916 56.7936 71.8903 58.0806 70.7896C59.3676 69.6889 60.2513 68.1564 60.5821 66.4519Z" fill="#9F2733"/>
<path d="M20.2287 66.4519H6.1051C6.43588 68.1564 7.31963 69.6889 8.60663 70.7896C9.89362 71.8903 11.5047 72.4916 13.1669 72.4916C14.8291 72.4916 16.4402 71.8903 17.7272 70.7896C19.0142 69.6889 19.8979 68.1564 20.2287 66.4519Z" fill="#9F2733"/>
<path d="M7.40234 36.0949C13.5418 32.3701 18.4706 33.2749 30.4613 33.2749C30.4613 32.475 30.1576 31.7078 29.6171 31.1422C29.0765 30.5766 28.3434 30.2588 27.5789 30.2588H7.40234V36.0949Z" fill="#FBA53E"/>
<path d="M36.226 22.7186H41.3998C40.8376 24.1543 40.5487 25.6911 40.5495 27.2427H54.9614V15.1783C50.2631 15.1783 46.5449 15.1783 43.086 19.7025H36.226C35.8437 19.7025 35.4772 19.8614 35.2069 20.1442C34.9366 20.427 34.7848 20.8106 34.7848 21.2105C34.7848 21.6105 34.9366 21.9941 35.2069 22.2769C35.4772 22.5597 35.8437 22.7186 36.226 22.7186Z" fill="#FBA53E"/>
<path d="M13.3282 0C13.2776 0 13.2383 0.039348 13.2383 0.0899382V1.21979C13.2383 1.27038 13.2776 1.30972 13.3282 1.30972H17.2967C17.3473 1.30972 17.3867 1.27038 17.3867 1.21979V0.0899382C17.3867 0.039348 17.3473 0 17.2967 0H13.3282Z" fill="#2B983E"/>
<path d="M29 27.0939L28.2074 11.321C28.2074 11.3153 28.2074 11.3097 28.2074 11.3041L28.0332 7.81337L26.7572 8.61719C26.6223 8.70151 26.4424 8.70151 26.3075 8.61719L24.6492 7.56604L22.991 8.61719C22.8561 8.70151 22.6762 8.70713 22.5413 8.61719L20.8831 7.56604L19.2248 8.61719C19.0899 8.70151 18.9101 8.70151 18.7752 8.61719L17.1169 7.56604L15.4587 8.61719C15.3238 8.70151 15.1439 8.70151 15.009 8.61719L13.3508 7.56604L11.6925 8.61719C11.5576 8.70151 11.3777 8.70151 11.2428 8.61719L9.96684 7.81337L9.26981 21.9505C9.26981 21.9843 9.26419 22.018 9.25295 22.0517L9 27.0939H29ZM19.0056 12.4396C21.2766 12.4396 23.1203 14.2833 23.1203 16.5542C23.1203 18.8252 21.2709 20.6689 19.0056 20.6689C16.7347 20.6689 14.891 18.8196 14.891 16.5542C14.891 14.2889 16.7347 12.4396 19.0056 12.4396Z" fill="#9F2733"/>
<path d="M12.0466 7.40309L13.1259 6.71731C13.2608 6.63299 13.4407 6.63299 13.5756 6.71731L15.2338 7.76846L16.8921 6.71731C17.027 6.63299 17.2068 6.62737 17.3417 6.71731L18.5784 7.49865V6.85222C18.5784 6.39691 18.4154 5.96408 18.1175 5.62681L17.5497 4.986C17.1169 4.49134 16.8752 3.86177 16.8752 3.2041V2.15857H13.7442V3.2041C13.7442 3.86177 13.5025 4.49134 13.0697 4.986L12.5019 5.62681C12.204 5.96408 12.041 6.40253 12.041 6.85222H12.0466V7.40309Z" fill="#267633"/>
<path d="M19.4272 3.04103V6.85216V7.4986L20.6639 6.71726C20.7988 6.63294 20.9787 6.62732 21.1136 6.71726L22.7774 7.76841L24.4357 6.71726C24.5706 6.63294 24.7505 6.63294 24.8854 6.71726L25.5093 7.11074V6.65543V6.6498V3.04103C25.5093 1.36594 24.1434 0 22.4683 0C20.7932 0 19.4272 1.36594 19.4272 3.04103ZM22.4683 2.67566C23.6768 2.67566 24.5931 3.24902 24.5931 4.00787C24.5931 4.76672 23.6768 5.34008 22.4683 5.34008C21.2597 5.34008 20.3435 4.76672 20.3435 4.00787C20.3435 3.24902 21.2597 2.67566 22.4683 2.67566Z" fill="#F5954D"/>
<path d="M22.4683 4.49688C23.3002 4.49688 23.7499 4.14837 23.7499 4.00784C23.7499 3.86169 23.3002 3.5188 22.4683 3.5188C21.6363 3.5188 21.1866 3.86731 21.1866 4.00784C21.1866 4.14837 21.6363 4.49126 22.4683 4.49688Z" fill="#F5954D"/>
<path d="M19.0056 19.8315C20.81 19.8315 22.2771 18.3643 22.2771 16.56C22.2771 14.7556 20.81 13.2885 19.0056 13.2885C17.2012 13.2885 15.7341 14.7556 15.7341 16.56C15.7341 18.3643 17.2012 19.8315 19.0056 19.8315Z" fill="#9F2733"/>
</svg>
