<svg width="57" height="70" viewBox="0 0 57 70" fill="none" xmlns="http://www.w3.org/2000/svg">
<path d="M28.3635 0C28.2774 0 28.2104 0.0669412 28.2104 0.153008V2.07518C28.2104 2.16124 28.2774 2.22818 28.3635 2.22818H35.1149C35.201 2.22818 35.268 2.16124 35.268 2.07518V0.153008C35.268 0.0669412 35.201 0 35.1149 0H28.3635Z" fill="#2B983E"/>
<path d="M55.0252 46.0939L53.6768 19.26C53.6768 19.2505 53.6768 19.2409 53.6768 19.2314L53.3804 13.2927L51.2096 14.6602C50.9801 14.8037 50.674 14.8037 50.4445 14.6602L47.6234 12.8719L44.8024 14.6602C44.5728 14.8037 44.2668 14.8132 44.0373 14.6602L41.2162 12.8719L38.3951 14.6602C38.1656 14.8037 37.8596 14.8037 37.6301 14.6602L34.809 12.8719L31.9879 14.6602C31.7584 14.8037 31.4524 14.8037 31.2229 14.6602L28.4018 12.8719L25.5807 14.6602C25.3512 14.8037 25.0452 14.8037 24.8156 14.6602L22.6448 13.2927L21.459 37.3437C21.459 37.4011 21.4495 37.4585 21.4303 37.5158L21 46.0939H55.0252ZM38.0222 21.1631C41.8856 21.1631 45.0223 24.2998 45.0223 28.1632C45.0223 32.0267 41.8761 35.1633 38.0222 35.1633C34.1587 35.1633 31.022 32.0171 31.022 28.1632C31.022 24.3093 34.1587 21.1631 38.0222 21.1631Z" fill="#9F2733"/>
<path d="M26.1831 12.5943L28.0192 11.4276C28.2488 11.2842 28.5548 11.2842 28.7843 11.4276L31.6054 13.2159L34.4265 11.4276C34.656 11.2842 34.962 11.2746 35.1915 11.4276L37.2954 12.7569V11.6571C37.2954 10.8825 37.018 10.1462 36.5112 9.57238L35.5453 8.48219C34.809 7.64065 34.3978 6.56959 34.3978 5.45072V3.672H29.0712V5.45072C29.0712 6.56959 28.66 7.64065 27.9236 8.48219L26.9578 9.57238C26.4509 10.1462 26.1736 10.8921 26.1736 11.6571H26.1831V12.5943Z" fill="#267633"/>
<path d="M38.7395 5.17359V11.6573V12.7571L40.8434 11.4278C41.0729 11.2844 41.3789 11.2748 41.6084 11.4278L44.4391 13.2161L47.2601 11.4278C47.4897 11.2844 47.7957 11.2844 48.0252 11.4278L49.0867 12.0972V11.3226V11.3131V5.17359C49.0867 2.32381 46.7629 0 43.9131 0C41.0633 0 38.7395 2.32381 38.7395 5.17359ZM43.9131 4.552C45.9691 4.552 47.5279 5.52742 47.5279 6.81843C47.5279 8.10944 45.9691 9.08487 43.9131 9.08487C41.857 9.08487 40.2983 8.10944 40.2983 6.81843C40.2983 5.52742 41.857 4.552 43.9131 4.552Z" fill="#F5954D"/>
<path d="M43.913 7.65029C45.3284 7.65029 46.0934 7.05739 46.0934 6.81831C46.0934 6.56967 45.3284 5.98633 43.913 5.98633C42.4977 5.98633 41.7327 6.57924 41.7327 6.81831C41.7327 7.05739 42.4977 7.64073 43.913 7.65029Z" fill="#F5954D"/>
<path d="M38.0221 33.7384C41.0918 33.7384 43.5878 31.2425 43.5878 28.1727C43.5878 25.103 41.0918 22.6071 38.0221 22.6071C34.9524 22.6071 32.4564 25.103 32.4564 28.1727C32.4564 31.2425 34.9524 33.7384 38.0221 33.7384Z" fill="#9F2733"/>
<path d="M56.3949 50.9974C55.8257 49.6061 54.5704 48.7233 53.1503 48.7233L27.09 48.7737C29.2925 46.5225 30.1915 45.2335 30.879 44.25C31.2556 43.7185 31.5416 43.3138 31.9912 42.8357C32.988 41.7468 33.2464 39.3963 32.5604 37.6522C32.0408 36.3128 31.022 35.5537 29.7668 35.5537C28.2985 35.5537 26.6186 36.5907 24.6292 38.7365C24.4176 38.9671 24.203 39.2176 24.0133 39.4192C23.752 39.6972 23.5185 39.9507 23.3039 40.1783C23.2076 40.2546 23.1375 40.3295 22.9273 40.5295C20.7234 42.8036 17.0074 46.3179 11.9398 50.2109L11.6348 50.4384C11.6085 50.4384 9.17107 52.3353 6.49572 53.2196C4.93254 53.7511 3.2088 53.8274 2.3068 53.8274C1.81201 53.8274 1.47924 53.8015 1.47924 53.8015C1.17127 53.7771 0.815139 53.9023 0.580151 54.1314C0.343704 54.3834 0.196289 54.7133 0.196289 55.0661V68.1853C0.196289 68.5396 0.343704 68.868 0.555339 69.097C0.787407 69.3216 1.07348 69.4498 1.38144 69.4498C1.40772 69.4498 1.40772 69.4498 1.43253 69.4498C1.54783 69.4498 4.41294 69.2986 7.46778 68.4632C10.8496 67.5285 14.3291 65.9616 14.4736 65.8867C14.5933 65.8363 14.7115 65.76 14.7845 65.6821C17.8583 63.7638 20.6519 62.2442 23.1375 61.1339C28.1058 58.9346 33.5514 57.67 33.5514 57.6441L53.1751 56.7858C55.1207 56.7858 56.7043 55.0905 56.7043 52.9936V52.514C56.7043 52.1612 56.662 51.8053 56.5627 51.5029C56.5131 51.3243 56.4679 51.1486 56.3949 50.9974Z" fill="#FBA53E"/>
</svg>
