<svg width="45" height="62" viewBox="0 0 45 62" fill="none" xmlns="http://www.w3.org/2000/svg">
<path d="M9.73861 0.290527C9.62479 0.290527 9.53625 0.37906 9.53625 0.492888V3.03505C9.53625 3.14887 9.62479 3.23741 9.73861 3.23741H18.6678C18.7816 3.23741 18.8701 3.14887 18.8701 3.03505V0.492888C18.8701 0.37906 18.7816 0.290527 18.6678 0.290527H9.73861Z" fill="#2B983E"/>
<path d="M45 61.252L43.2167 25.763C43.2167 25.7503 43.2167 25.7377 43.2167 25.725L42.8246 17.8709L39.9536 19.6795C39.6501 19.8692 39.2454 19.8692 38.9418 19.6795L35.2108 17.3144L31.4798 19.6795C31.1762 19.8692 30.7715 19.8818 30.468 19.6795L26.7369 17.3144L23.0059 19.6795C22.7024 19.8692 22.2976 19.8692 21.9941 19.6795L18.2631 17.3144L14.532 19.6795C14.2285 19.8692 13.8238 19.8692 13.5202 19.6795L9.78921 17.3144L6.05818 19.6795C5.75464 19.8692 5.34992 19.8692 5.04637 19.6795L2.17538 17.8709L0.607083 49.6795C0.607083 49.7554 0.594435 49.8312 0.56914 49.9071L0 61.252H45ZM22.5126 28.2798C27.6223 28.2798 31.7707 32.4282 31.7707 37.5378C31.7707 42.6474 27.6096 46.7958 22.5126 46.7958C17.403 46.7958 13.2546 42.6348 13.2546 37.5378C13.2546 32.4409 17.403 28.2798 22.5126 28.2798Z" fill="#9F2733"/>
<path d="M6.85493 16.9475L9.28326 15.4045C9.5868 15.2148 9.99153 15.2148 10.2951 15.4045L14.0261 17.7696L17.7571 15.4045C18.0607 15.2148 18.4654 15.2021 18.7689 15.4045L21.5514 17.1625V15.708C21.5514 14.6836 21.1846 13.7097 20.5143 12.9509L19.2369 11.5091C18.263 10.3961 17.7192 8.97955 17.7192 7.49978V5.14734H10.6745V7.49978C10.6745 8.97955 10.1306 10.3961 9.15679 11.5091L7.87938 12.9509C7.20906 13.7097 6.84229 14.6962 6.84229 15.708H6.85493V16.9475Z" fill="#267633"/>
<path d="M23.4613 7.13285V15.7079V17.1624L26.2438 15.4044C26.5473 15.2146 26.952 15.202 27.2556 15.4044L30.9992 17.7694L34.7303 15.4044C35.0338 15.2146 35.4385 15.2146 35.7421 15.4044L37.146 16.2897V15.2652V15.2526V7.13285C37.146 3.36388 34.0726 0.290527 30.3036 0.290527C26.5347 0.290527 23.4613 3.36388 23.4613 7.13285ZM30.3036 6.31076C33.0229 6.31076 35.0844 7.60081 35.0844 9.30824C35.0844 11.0157 33.0229 12.3057 30.3036 12.3057C27.5844 12.3057 25.5229 11.0157 25.5229 9.30824C25.5229 7.60081 27.5844 6.31076 30.3036 6.31076Z" fill="#F5954D"/>
<path d="M30.3034 10.4085C32.1753 10.4085 33.1871 9.62435 33.1871 9.30816C33.1871 8.97933 32.1753 8.20782 30.3034 8.20782C28.4316 8.20782 27.4198 8.99197 27.4198 9.30816C27.4198 9.62435 28.4316 10.3959 30.3034 10.4085Z" fill="#F5954D"/>
<path d="M22.5127 44.9113C26.5726 44.9113 29.8736 41.6103 29.8736 37.5505C29.8736 33.4906 26.5726 30.1896 22.5127 30.1896C18.4529 30.1896 15.1519 33.4906 15.1519 37.5505C15.1519 41.6103 18.4529 44.9113 22.5127 44.9113Z" fill="#9F2733"/>
</svg>
