<svg width="100" height="135" viewBox="0 0 100 135" fill="none" xmlns="http://www.w3.org/2000/svg">
<rect width="100" height="100" rx="50" fill="#FFE299"/>
<path d="M65.1288 36.3944C65.0992 36.395 65.0702 36.3985 65.0406 36.3985C63.3557 36.3985 61.9846 35.0185 61.9846 33.322C61.9846 32.9161 62.0652 32.5295 62.2073 32.1739C62.216 32.1522 62.2235 32.1306 62.2328 32.1096C62.7009 31.0146 63.7826 30.2455 65.04 30.2455C66.7249 30.2455 68.0955 31.6255 68.0955 33.322C68.0955 33.7845 67.9911 34.2214 67.8084 34.615C67.8118 34.5659 67.8159 34.5169 67.8159 34.4672C67.8159 33.3395 66.9076 32.4261 65.7894 32.4261C64.67 32.4261 63.7629 33.3395 63.7629 34.4672C63.7634 35.3613 64.3347 36.1182 65.1288 36.3944Z" fill="black"/>
<path d="M39.3031 33.0861H59.7632C59.7585 33.0861 59.7492 33.2507 59.7492 33.3465C59.7492 36.2846 62.1232 38.6627 65.0412 38.6627C67.9591 38.6627 70.3331 36.2905 70.3331 33.3529C70.3331 33.2566 70.3238 33.0861 70.3186 33.0861H76.8743C77.7768 33.0861 77.4201 34.0076 77.4201 34.0076L77.4184 33.9948C76.0472 38.3923 71.7616 47.449 60.0039 47.4998L58.6333 47.5044L62.1562 52.7639C62.3094 53.1108 62.6162 54.0172 61.915 54.499C61.1279 55.0398 60.3321 54.0441 60.1738 53.8297L55.9091 47.5132C55.6666 47.5138 55.4932 47.5144 55.1736 47.5155V40.5922C55.1736 40.3072 55.0704 39.8453 54.4904 39.8453H54.009C53.1129 39.8453 52.9354 40.8632 52.9354 40.8632V47.1704L57.0981 53.3357C57.2616 53.7416 57.5423 54.645 56.8753 55.1005C56.0007 55.6985 55.1127 54.3495 55.1127 54.3495C55.1127 54.3495 55.1139 54.3542 55.1133 54.3548L50.5655 47.5617C49.59 47.5809 48.6451 47.6096 47.7316 47.6481L51.5939 53.4139C51.7296 53.7673 51.961 54.6065 51.3479 55.0742L51.2482 55.1414C50.5881 55.5362 49.9826 54.9586 49.7425 54.6765L45.1396 47.8023C44.5933 47.8449 44.0579 47.8922 43.5464 47.9489L42.079 40.4077C41.9572 40.1285 41.6277 39.6251 40.876 39.746L40.7403 39.7734C39.9318 39.9778 39.8912 40.6839 39.9098 40.966L41.3812 48.2625C38.2278 48.8196 35.8097 49.7984 34.1127 51.5194L29.6942 45.4931C29.4089 45.2987 28.9159 45.0715 28.4188 45.3249L28.0818 45.5761C27.5871 46.0882 27.8382 46.6944 27.9565 46.9146L32.7096 53.3987C32.0467 54.593 31.6169 56.011 31.4035 57.6882L27.6045 57.0353C27.2124 57.0499 26.6498 57.2 26.5077 57.8955L26.4897 58.0036C26.3441 59.0998 27.3354 59.2528 27.3354 59.2528C27.3354 59.2528 27.3475 59.2639 27.3649 59.279L31.2492 59.9477C31.2428 60.3332 31.2422 60.7268 31.2538 61.1356C31.2892 62.4595 31.5102 63.6129 31.8663 64.6221L30.6692 64.9625C30.3914 65.1424 29.9773 65.5541 30.1913 66.325L30.1965 66.3431C30.4099 67.0842 30.9279 67.1648 31.2521 67.1356L32.8923 66.6701C35.0905 69.9137 39.0171 70.924 41.6463 70.924L41.9844 70.9176L52.461 65.2376C53.2579 65.0157 53.2225 65.588 53.1135 65.9869L49.9026 72.4716L52.8397 77.9355C52.9493 78.3618 52.8658 78.7455 51.9946 78.4167L42.0529 72.9873L41.8649 72.9569C41.0634 72.8255 22.2522 69.5574 22.2522 51.4838C22.2517 33.5241 38.6065 33.0861 39.3031 33.0861Z" fill="#B88E24"/>
<path d="M19.605 131.12C18.445 131.12 17.535 130.82 16.875 130.22C16.215 129.62 15.86 128.83 15.81 127.85L16.965 127.775C16.995 128.165 17.115 128.535 17.325 128.885C17.545 129.225 17.85 129.505 18.24 129.725C18.63 129.935 19.085 130.04 19.605 130.04C20.345 130.04 20.945 129.875 21.405 129.545C21.865 129.205 22.095 128.75 22.095 128.18C22.095 127.59 21.935 127.155 21.615 126.875C21.305 126.585 20.825 126.39 20.175 126.29L18.855 126.095C17.995 125.965 17.315 125.67 16.815 125.21C16.325 124.74 16.08 124.085 16.08 123.245C16.08 122.665 16.23 122.16 16.53 121.73C16.83 121.3 17.24 120.97 17.76 120.74C18.29 120.5 18.885 120.38 19.545 120.38C20.645 120.38 21.485 120.62 22.065 121.1C22.645 121.57 22.975 122.245 23.055 123.125L21.93 123.26C21.82 122.63 21.575 122.17 21.195 121.88C20.815 121.58 20.265 121.43 19.545 121.43C18.855 121.43 18.3 121.595 17.88 121.925C17.46 122.245 17.25 122.68 17.25 123.23C17.25 123.75 17.41 124.15 17.73 124.43C18.06 124.71 18.54 124.9 19.17 125L20.52 125.21C21.44 125.35 22.13 125.645 22.59 126.095C23.06 126.535 23.295 127.2 23.295 128.09C23.295 128.71 23.13 129.25 22.8 129.71C22.48 130.16 22.04 130.51 21.48 130.76C20.92 131 20.295 131.12 19.605 131.12ZM31.7184 127.235H25.9584C25.9784 128.145 26.2184 128.845 26.6784 129.335C27.1484 129.825 27.7234 130.07 28.4034 130.07C28.9234 130.07 29.3684 129.945 29.7384 129.695C30.1184 129.445 30.3834 129.1 30.5334 128.66L31.5684 128.855C31.3884 129.555 31.0184 130.11 30.4584 130.52C29.9084 130.92 29.2234 131.12 28.4034 131.12C27.7034 131.12 27.0834 130.965 26.5434 130.655C26.0034 130.335 25.5784 129.875 25.2684 129.275C24.9684 128.665 24.8184 127.95 24.8184 127.13C24.8184 126.31 24.9734 125.6 25.2834 125C25.6034 124.4 26.0334 123.94 26.5734 123.62C27.1234 123.3 27.7334 123.14 28.4034 123.14C29.4334 123.14 30.2434 123.46 30.8334 124.1C31.4234 124.73 31.7184 125.585 31.7184 126.665V127.235ZM30.5484 126.275C30.4984 125.605 30.2734 125.09 29.8734 124.73C29.4734 124.36 28.9834 124.175 28.4034 124.175C27.8134 124.175 27.3034 124.355 26.8734 124.715C26.4434 125.075 26.1634 125.595 26.0334 126.275H30.5484ZM36.85 123.14C37.85 123.14 38.605 123.39 39.115 123.89C39.625 124.38 39.88 125.075 39.88 125.975V131H38.8V129.71C38.54 130.15 38.205 130.495 37.795 130.745C37.395 130.995 36.85 131.12 36.16 131.12C35.44 131.12 34.845 130.905 34.375 130.475C33.915 130.045 33.685 129.495 33.685 128.825C33.685 128.135 33.92 127.595 34.39 127.205C34.86 126.805 35.52 126.58 36.37 126.53L38.74 126.41V125.975C38.74 125.415 38.575 124.965 38.245 124.625C37.925 124.285 37.46 124.115 36.85 124.115C35.76 124.115 35.13 124.535 34.96 125.375L33.925 125.3C34.005 124.66 34.305 124.14 34.825 123.74C35.345 123.34 36.02 123.14 36.85 123.14ZM36.37 130.085C36.7 130.085 37.045 130.015 37.405 129.875C37.775 129.735 38.09 129.515 38.35 129.215C38.61 128.905 38.74 128.515 38.74 128.045V127.37L36.535 127.49C35.925 127.53 35.49 127.665 35.23 127.895C34.97 128.125 34.84 128.44 34.84 128.84C34.84 129.23 34.98 129.535 35.26 129.755C35.54 129.975 35.91 130.085 36.37 130.085ZM46.6221 124.235H45.4371V123.26H46.6221V122.12C46.6221 121.42 46.8171 120.89 47.2071 120.53C47.5971 120.17 48.1121 119.99 48.7521 119.99C49.1121 119.99 49.4221 120.02 49.6821 120.08V121.145C49.3721 121.075 49.0771 121.04 48.7971 121.04C48.4771 121.04 48.2271 121.13 48.0471 121.31C47.8671 121.48 47.7771 121.735 47.7771 122.075V123.26H49.6821V124.235H47.7771V131H46.6221V124.235ZM54.5073 131.12C53.8273 131.12 53.2123 130.96 52.6623 130.64C52.1223 130.32 51.6923 129.86 51.3723 129.26C51.0623 128.66 50.9073 127.95 50.9073 127.13C50.9073 126.31 51.0623 125.6 51.3723 125C51.6923 124.4 52.1223 123.94 52.6623 123.62C53.2123 123.3 53.8273 123.14 54.5073 123.14C55.1873 123.14 55.7973 123.3 56.3373 123.62C56.8873 123.94 57.3173 124.4 57.6273 125C57.9473 125.6 58.1073 126.31 58.1073 127.13C58.1073 127.95 57.9473 128.66 57.6273 129.26C57.3173 129.86 56.8873 130.32 56.3373 130.64C55.7973 130.96 55.1873 131.12 54.5073 131.12ZM54.5073 130.07C55.2173 130.07 55.8023 129.82 56.2623 129.32C56.7323 128.81 56.9673 128.08 56.9673 127.13C56.9673 126.18 56.7323 125.455 56.2623 124.955C55.8023 124.445 55.2173 124.19 54.5073 124.19C53.7973 124.19 53.2073 124.445 52.7373 124.955C52.2773 125.455 52.0473 126.18 52.0473 127.13C52.0473 128.08 52.2773 128.81 52.7373 129.32C53.2073 129.82 53.7973 130.07 54.5073 130.07ZM63.2964 131.12C62.6164 131.12 62.0014 130.96 61.4514 130.64C60.9114 130.32 60.4814 129.86 60.1614 129.26C59.8514 128.66 59.6964 127.95 59.6964 127.13C59.6964 126.31 59.8514 125.6 60.1614 125C60.4814 124.4 60.9114 123.94 61.4514 123.62C62.0014 123.3 62.6164 123.14 63.2964 123.14C63.9764 123.14 64.5864 123.3 65.1264 123.62C65.6764 123.94 66.1064 124.4 66.4164 125C66.7364 125.6 66.8964 126.31 66.8964 127.13C66.8964 127.95 66.7364 128.66 66.4164 129.26C66.1064 129.86 65.6764 130.32 65.1264 130.64C64.5864 130.96 63.9764 131.12 63.2964 131.12ZM63.2964 130.07C64.0064 130.07 64.5914 129.82 65.0514 129.32C65.5214 128.81 65.7564 128.08 65.7564 127.13C65.7564 126.18 65.5214 125.455 65.0514 124.955C64.5914 124.445 64.0064 124.19 63.2964 124.19C62.5864 124.19 61.9964 124.445 61.5264 124.955C61.0664 125.455 60.8364 126.18 60.8364 127.13C60.8364 128.08 61.0664 128.81 61.5264 129.32C61.9964 129.82 62.5864 130.07 63.2964 130.07ZM71.8604 131.12C71.2404 131.12 70.6704 130.965 70.1504 130.655C69.6404 130.335 69.2354 129.875 68.9354 129.275C68.6354 128.675 68.4854 127.96 68.4854 127.13C68.4854 126.3 68.6354 125.585 68.9354 124.985C69.2354 124.385 69.6404 123.93 70.1504 123.62C70.6704 123.3 71.2404 123.14 71.8604 123.14C72.4204 123.14 72.9254 123.26 73.3754 123.5C73.8354 123.73 74.1654 124.04 74.3654 124.43V120.11H75.5204V131H74.4254V129.62C74.1854 130.1 73.8404 130.47 73.3904 130.73C72.9404 130.99 72.4304 131.12 71.8604 131.12ZM71.9954 130.07C72.7054 130.07 73.2854 129.82 73.7354 129.32C74.1954 128.81 74.4254 128.08 74.4254 127.13C74.4254 126.18 74.1954 125.455 73.7354 124.955C73.2854 124.445 72.7054 124.19 71.9954 124.19C71.3154 124.19 70.7504 124.445 70.3004 124.955C69.8504 125.455 69.6254 126.18 69.6254 127.13C69.6254 128.08 69.8504 128.81 70.3004 129.32C70.7504 129.82 71.3154 130.07 71.9954 130.07Z" fill="#6D3805"/>
</svg>
