<svg width="100" height="132" viewBox="0 0 100 132" fill="none" xmlns="http://www.w3.org/2000/svg">
<path d="M10.5023 117.978H11.8373L15.2123 126.888L18.5873 117.978H19.9223L15.8423 128.478H14.5823L10.5023 117.978ZM27.3581 124.713H21.5981C21.6181 125.623 21.8581 126.323 22.3181 126.813C22.7881 127.303 23.3631 127.548 24.0431 127.548C24.5631 127.548 25.0081 127.423 25.3781 127.173C25.7581 126.923 26.0231 126.578 26.1731 126.138L27.2081 126.333C27.0281 127.033 26.6581 127.588 26.0981 127.998C25.5481 128.398 24.8631 128.598 24.0431 128.598C23.3431 128.598 22.7231 128.443 22.1831 128.133C21.6431 127.813 21.2181 127.353 20.9081 126.753C20.6081 126.143 20.4581 125.428 20.4581 124.608C20.4581 123.788 20.6131 123.078 20.9231 122.478C21.2431 121.878 21.6731 121.418 22.2131 121.098C22.7631 120.778 23.3731 120.618 24.0431 120.618C25.0731 120.618 25.8831 120.938 26.4731 121.578C27.0631 122.208 27.3581 123.063 27.3581 124.143V124.713ZM26.1881 123.753C26.1381 123.083 25.9131 122.568 25.5131 122.208C25.1131 121.838 24.6231 121.653 24.0431 121.653C23.4531 121.653 22.9431 121.833 22.5131 122.193C22.0831 122.553 21.8031 123.073 21.6731 123.753H26.1881ZM33.1346 126.978C33.9746 126.978 34.6196 127.143 35.0696 127.473C35.5196 127.803 35.7446 128.308 35.7446 128.988C35.7446 129.728 35.4596 130.308 34.8896 130.728C34.3196 131.148 33.6146 131.358 32.7746 131.358H32.0246C31.1746 131.358 30.4646 131.148 29.8946 130.728C29.3346 130.308 29.0546 129.728 29.0546 128.988C29.0546 128.718 29.1146 128.448 29.2346 128.178C29.3546 127.898 29.5246 127.663 29.7446 127.473C29.4346 127.163 29.2796 126.773 29.2796 126.303C29.2796 125.983 29.3596 125.698 29.5196 125.448C29.6896 125.198 29.9196 125.003 30.2096 124.863C29.8096 124.403 29.6096 123.848 29.6096 123.198C29.6096 122.698 29.7296 122.253 29.9696 121.863C30.2096 121.463 30.5346 121.158 30.9446 120.948C31.3646 120.728 31.8246 120.618 32.3246 120.618C32.8746 120.618 33.3696 120.748 33.8096 121.008C34.2496 120.708 34.5246 120.218 34.6346 119.538L35.5946 119.778C35.4946 120.628 35.1296 121.243 34.4996 121.623C34.8496 122.073 35.0246 122.598 35.0246 123.198C35.0246 123.698 34.9046 124.148 34.6646 124.548C34.4246 124.938 34.0946 125.243 33.6746 125.463C33.2646 125.673 32.8146 125.778 32.3246 125.778C31.8146 125.778 31.3496 125.668 30.9296 125.448C30.7396 125.508 30.5896 125.603 30.4796 125.733C30.3696 125.863 30.3146 126.018 30.3146 126.198C30.3146 126.428 30.3946 126.618 30.5546 126.768C30.7146 126.908 30.9146 126.978 31.1546 126.978H33.1346ZM32.3246 121.608C31.8546 121.608 31.4646 121.753 31.1546 122.043C30.8546 122.323 30.7046 122.708 30.7046 123.198C30.7046 123.688 30.8546 124.078 31.1546 124.368C31.4646 124.648 31.8546 124.788 32.3246 124.788C32.7946 124.788 33.1796 124.648 33.4796 124.368C33.7896 124.078 33.9446 123.688 33.9446 123.198C33.9446 122.708 33.7896 122.323 33.4796 122.043C33.1796 121.753 32.7946 121.608 32.3246 121.608ZM32.6846 130.353C33.2446 130.353 33.7046 130.248 34.0646 130.038C34.4246 129.838 34.6046 129.498 34.6046 129.018C34.6046 128.678 34.4596 128.423 34.1696 128.253C33.8796 128.073 33.4796 127.983 32.9696 127.983H31.0946C30.9946 127.983 30.8546 127.973 30.6746 127.953C30.5046 128.073 30.3746 128.223 30.2846 128.403C30.2046 128.573 30.1646 128.753 30.1646 128.943C30.1646 129.393 30.3346 129.738 30.6746 129.978C31.0146 130.228 31.4996 130.353 32.1296 130.353H32.6846ZM39.8891 128.598C39.2991 128.598 38.8391 128.408 38.5091 128.028C38.1791 127.638 38.0141 127.078 38.0141 126.348V121.713H36.8141V120.738H37.1141C37.4241 120.738 37.6491 120.668 37.7891 120.528C37.9391 120.378 38.0141 120.148 38.0141 119.838V118.623H39.1691V119.763C39.1691 120.193 39.0141 120.518 38.7041 120.738H40.9541V121.713H39.1691V126.468C39.1691 126.808 39.2541 127.073 39.4241 127.263C39.6041 127.443 39.8491 127.533 40.1591 127.533C40.5691 127.533 40.8841 127.498 41.1041 127.428V128.463C40.7841 128.553 40.3791 128.598 39.8891 128.598ZM45.7611 120.618C46.7611 120.618 47.5161 120.868 48.0261 121.368C48.5361 121.858 48.7911 122.553 48.7911 123.453V128.478H47.7111V127.188C47.4511 127.628 47.1161 127.973 46.7061 128.223C46.3061 128.473 45.7611 128.598 45.0711 128.598C44.3511 128.598 43.7561 128.383 43.2861 127.953C42.8261 127.523 42.5961 126.973 42.5961 126.303C42.5961 125.613 42.8311 125.073 43.3011 124.683C43.7711 124.283 44.4311 124.058 45.2811 124.008L47.6511 123.888V123.453C47.6511 122.893 47.4861 122.443 47.1561 122.103C46.8361 121.763 46.3711 121.593 45.7611 121.593C44.6711 121.593 44.0411 122.013 43.8711 122.853L42.8361 122.778C42.9161 122.138 43.2161 121.618 43.7361 121.218C44.2561 120.818 44.9311 120.618 45.7611 120.618ZM45.2811 127.563C45.6111 127.563 45.9561 127.493 46.3161 127.353C46.6861 127.213 47.0011 126.993 47.2611 126.693C47.5211 126.383 47.6511 125.993 47.6511 125.523V124.848L45.4461 124.968C44.8361 125.008 44.4011 125.143 44.1411 125.373C43.8811 125.603 43.7511 125.918 43.7511 126.318C43.7511 126.708 43.8911 127.013 44.1711 127.233C44.4511 127.453 44.8211 127.563 45.2811 127.563ZM54.92 128.598C54.34 128.598 53.825 128.478 53.375 128.238C52.925 127.998 52.585 127.638 52.355 127.158V128.478H51.26V117.588H52.415V121.998C52.615 121.578 52.94 121.243 53.39 120.993C53.84 120.743 54.35 120.618 54.92 120.618C55.54 120.618 56.105 120.778 56.615 121.098C57.135 121.408 57.545 121.863 57.845 122.463C58.145 123.063 58.295 123.778 58.295 124.608C58.295 125.438 58.145 126.153 57.845 126.753C57.545 127.353 57.135 127.813 56.615 128.133C56.105 128.443 55.54 128.598 54.92 128.598ZM54.77 127.548C55.46 127.548 56.025 127.298 56.465 126.798C56.915 126.288 57.14 125.558 57.14 124.608C57.14 123.658 56.915 122.933 56.465 122.433C56.025 121.923 55.46 121.668 54.77 121.668C54.07 121.668 53.49 121.923 53.03 122.433C52.58 122.933 52.355 123.658 52.355 124.608C52.355 125.558 52.58 126.288 53.03 126.798C53.49 127.298 54.07 127.548 54.77 127.548ZM61.5117 128.478H60.3567V117.588H61.5117V128.478ZM70.4684 124.713H64.7084C64.7284 125.623 64.9684 126.323 65.4284 126.813C65.8984 127.303 66.4734 127.548 67.1534 127.548C67.6734 127.548 68.1184 127.423 68.4884 127.173C68.8684 126.923 69.1334 126.578 69.2834 126.138L70.3184 126.333C70.1384 127.033 69.7684 127.588 69.2084 127.998C68.6584 128.398 67.9734 128.598 67.1534 128.598C66.4534 128.598 65.8334 128.443 65.2934 128.133C64.7534 127.813 64.3284 127.353 64.0184 126.753C63.7184 126.143 63.5684 125.428 63.5684 124.608C63.5684 123.788 63.7234 123.078 64.0334 122.478C64.3534 121.878 64.7834 121.418 65.3234 121.098C65.8734 120.778 66.4834 120.618 67.1534 120.618C68.1834 120.618 68.9934 120.938 69.5834 121.578C70.1734 122.208 70.4684 123.063 70.4684 124.143V124.713ZM69.2984 123.753C69.2484 123.083 69.0234 122.568 68.6234 122.208C68.2234 121.838 67.7334 121.653 67.1534 121.653C66.5634 121.653 66.0534 121.833 65.6234 122.193C65.1934 122.553 64.9134 123.073 64.7834 123.753H69.2984ZM75.345 128.598C74.425 128.598 73.7 128.373 73.17 127.923C72.64 127.473 72.355 126.888 72.315 126.168L73.47 126.078C73.51 126.518 73.69 126.878 74.01 127.158C74.33 127.428 74.775 127.563 75.345 127.563C75.885 127.563 76.32 127.453 76.65 127.233C76.98 127.013 77.145 126.688 77.145 126.258C77.145 125.588 76.68 125.188 75.75 125.058L74.76 124.923C73.27 124.723 72.525 124.008 72.525 122.778C72.525 122.358 72.645 121.983 72.885 121.653C73.135 121.323 73.47 121.068 73.89 120.888C74.32 120.708 74.79 120.618 75.3 120.618C76.17 120.618 76.85 120.803 77.34 121.173C77.84 121.533 78.11 122.058 78.15 122.748L77.085 122.838C76.965 122.408 76.765 122.098 76.485 121.908C76.215 121.718 75.82 121.623 75.3 121.623C74.8 121.623 74.395 121.728 74.085 121.938C73.785 122.138 73.635 122.408 73.635 122.748C73.635 123.078 73.75 123.338 73.98 123.528C74.22 123.718 74.58 123.848 75.06 123.918L76.05 124.053C77.55 124.263 78.3 124.968 78.3 126.168C78.3 126.938 78.025 127.538 77.475 127.968C76.935 128.388 76.225 128.598 75.345 128.598Z" fill="#6D3805"/>
<rect y="0.555542" width="100" height="97.491" rx="48.7455" fill="#FFD9BA"/>
<path d="M39.0686 43.399C34.7374 52.7045 34.8405 62.2124 39.2749 71.5179C38.0374 71.619 35.5624 71.7202 34.2218 71.619C28.8593 71.2144 24.2186 67.0674 21.8468 62.5158C18.2374 55.3344 18.5468 45.422 24.4249 39.4543C29.3749 34.3969 36.3874 32.9809 43.503 32.5763C42.678 32.9809 39.8936 33.6889 39.7905 33.6889C39.2749 33.5878 38.7593 33.8912 38.553 34.2958C38.3468 34.8015 38.553 35.4084 39.0686 35.6107C39.0686 35.6107 41.5436 36.2176 43.2968 36.3187C41.853 38.3417 40.3061 40.7692 39.0686 43.399Z" fill="#FF7300"/>
<path d="M58.1468 71.8213C57.9406 72.3271 57.5281 72.7317 57.1156 73.0351C55.4656 73.7431 52.9906 74.4512 49.8968 74.4512C46.9062 74.5523 44.4312 73.8443 42.6781 73.0351C42.2656 72.7317 41.9562 72.2259 41.6468 71.8213C36.9031 62.617 36.5937 53.4126 40.8218 44.3094C42.3687 41.0727 44.225 38.3417 45.9781 36.2176C46.3906 36.1165 46.9062 36.0153 47.3187 35.9142C47.8343 37.3302 48.7625 39.252 50.4125 39.4543C52.1656 39.5555 53.1968 37.9371 53.9187 36.6222C55.5687 38.7463 57.3218 41.275 58.7656 44.4105C63.2 53.4126 62.8906 62.617 58.1468 71.8213Z" fill="#FF7300"/>
<path d="M78.05 62.5158C75.7812 67.0674 71.0375 71.2144 65.675 71.619C64.3344 71.7202 61.9625 71.619 60.6219 71.5179C65.1594 62.1112 65.2625 52.7045 60.8281 43.399C59.6937 40.9715 58.3531 38.8474 57.0125 36.9256C58.1469 37.0268 59.3844 36.8245 60.725 36.4199C61.1375 36.2176 61.4469 35.813 61.4469 35.4084C61.4469 34.5992 60.8281 34.4981 60.3125 34.3969C60.1063 34.2958 57.7344 33.2843 56.7031 32.5763C63.7156 32.9809 70.5219 34.3969 75.4719 39.3531C81.4531 45.422 81.7625 55.3344 78.05 62.5158Z" fill="#FF7300"/>
<path d="M53.9186 20.641C53.403 20.4387 52.6811 21.349 52.4749 21.6524C51.8561 22.3605 50.5155 27.519 49.5874 29.1373C47.8342 31.9694 44.5342 33.6889 41.3374 34.4981C40.9249 34.5993 39.9967 35.0038 39.5842 34.9027C39.5842 34.9027 44.2249 36.3187 48.3499 34.5993C48.3499 34.5993 50.2061 42.8933 53.7124 35.2061C53.7124 35.2061 57.0124 36.9256 60.5186 35.6107C60.2092 35.7119 59.3842 35.2061 59.178 35.105C56.3936 33.9924 53.403 31.8683 52.8874 28.7327C52.6811 27.3167 53.403 24.3834 55.2592 24.2823C55.4655 24.2823 55.6717 24.1811 55.7749 23.8777C55.878 23.1696 56.0842 21.4502 53.9186 20.641Z" fill="#55AE0F"/>
</svg>
